<mxfile host="app.diagrams.net" modified="2021-11-15T09:08:17.622Z" agent="5.0 (Windows)" etag="4SRqlw6QB-k1V4OzvdzA" version="15.7.3" type="github">
  <diagram id="DV0DJc3nDlANUc205a4R" name="Page-1">
    <mxGraphModel dx="4024" dy="1253" grid="1" gridSize="10" guides="1" tooltips="1" connect="1" arrows="1" fold="1" page="1" pageScale="1" pageWidth="827" pageHeight="1169" math="0" shadow="0">
      <root>
        <mxCell id="0" />
        <mxCell id="1" parent="0" />
        <mxCell id="VfczCMwQgirAFWGqFJcv-614" value="" style="rounded=0;whiteSpace=wrap;html=1;" vertex="1" parent="1">
          <mxGeometry x="-1380" y="505" width="410" height="370" as="geometry" />
        </mxCell>
        <mxCell id="VfczCMwQgirAFWGqFJcv-66" style="edgeStyle=none;rounded=0;orthogonalLoop=1;jettySize=auto;html=1;entryX=0;entryY=0.5;entryDx=0;entryDy=0;fontSize=18;" edge="1" parent="1" source="VfczCMwQgirAFWGqFJcv-72" target="VfczCMwQgirAFWGqFJcv-82">
          <mxGeometry relative="1" as="geometry" />
        </mxCell>
        <mxCell id="VfczCMwQgirAFWGqFJcv-67" style="edgeStyle=none;rounded=0;orthogonalLoop=1;jettySize=auto;html=1;entryX=0;entryY=0.5;entryDx=0;entryDy=0;fontSize=18;" edge="1" parent="1" source="VfczCMwQgirAFWGqFJcv-72" target="VfczCMwQgirAFWGqFJcv-86">
          <mxGeometry relative="1" as="geometry" />
        </mxCell>
        <mxCell id="VfczCMwQgirAFWGqFJcv-68" style="edgeStyle=none;rounded=0;orthogonalLoop=1;jettySize=auto;html=1;fontSize=18;" edge="1" parent="1" source="VfczCMwQgirAFWGqFJcv-72" target="VfczCMwQgirAFWGqFJcv-88">
          <mxGeometry relative="1" as="geometry" />
        </mxCell>
        <mxCell id="VfczCMwQgirAFWGqFJcv-69" style="edgeStyle=none;rounded=0;orthogonalLoop=1;jettySize=auto;html=1;entryX=0;entryY=0.5;entryDx=0;entryDy=0;fontSize=18;" edge="1" parent="1" source="VfczCMwQgirAFWGqFJcv-72" target="VfczCMwQgirAFWGqFJcv-91">
          <mxGeometry relative="1" as="geometry" />
        </mxCell>
        <mxCell id="VfczCMwQgirAFWGqFJcv-70" style="edgeStyle=none;rounded=0;orthogonalLoop=1;jettySize=auto;html=1;entryX=0;entryY=0.5;entryDx=0;entryDy=0;fontSize=18;" edge="1" parent="1" source="VfczCMwQgirAFWGqFJcv-72" target="VfczCMwQgirAFWGqFJcv-94">
          <mxGeometry relative="1" as="geometry" />
        </mxCell>
        <mxCell id="VfczCMwQgirAFWGqFJcv-71" style="edgeStyle=none;rounded=0;orthogonalLoop=1;jettySize=auto;html=1;entryX=0;entryY=0.5;entryDx=0;entryDy=0;fontSize=18;" edge="1" parent="1" source="VfczCMwQgirAFWGqFJcv-72" target="VfczCMwQgirAFWGqFJcv-97">
          <mxGeometry relative="1" as="geometry" />
        </mxCell>
        <mxCell id="VfczCMwQgirAFWGqFJcv-72" value="" style="rounded=0;whiteSpace=wrap;html=1;glass=0;shadow=1;sketch=1;" vertex="1" parent="1">
          <mxGeometry x="-790" y="560" width="80" height="240" as="geometry" />
        </mxCell>
        <mxCell id="VfczCMwQgirAFWGqFJcv-76" style="edgeStyle=orthogonalEdgeStyle;rounded=0;orthogonalLoop=1;jettySize=auto;html=1;entryX=-0.062;entryY=0.583;entryDx=0;entryDy=0;entryPerimeter=0;fontSize=18;exitX=1.002;exitY=0.532;exitDx=0;exitDy=0;exitPerimeter=0;" edge="1" parent="1" source="VfczCMwQgirAFWGqFJcv-614" target="VfczCMwQgirAFWGqFJcv-72">
          <mxGeometry relative="1" as="geometry">
            <mxPoint x="-880" y="700" as="sourcePoint" />
            <Array as="points">
              <mxPoint x="-969" y="700" />
            </Array>
          </mxGeometry>
        </mxCell>
        <mxCell id="VfczCMwQgirAFWGqFJcv-78" value="Embedded layer" style="text;html=1;strokeColor=none;fillColor=none;align=center;verticalAlign=middle;whiteSpace=wrap;rounded=0;shadow=1;glass=0;sketch=1;fontSize=18;" vertex="1" parent="1">
          <mxGeometry x="-1080" y="300" width="200" height="30" as="geometry" />
        </mxCell>
        <mxCell id="VfczCMwQgirAFWGqFJcv-80" value="Batch normalization" style="text;html=1;strokeColor=none;fillColor=none;align=center;verticalAlign=middle;whiteSpace=wrap;rounded=0;shadow=1;glass=0;sketch=1;fontSize=18;" vertex="1" parent="1">
          <mxGeometry x="-840" y="880" width="170" height="30" as="geometry" />
        </mxCell>
        <mxCell id="VfczCMwQgirAFWGqFJcv-81" style="rounded=0;orthogonalLoop=1;jettySize=auto;html=1;entryX=0;entryY=0.5;entryDx=0;entryDy=0;fontSize=18;" edge="1" parent="1" source="VfczCMwQgirAFWGqFJcv-82" target="VfczCMwQgirAFWGqFJcv-104">
          <mxGeometry relative="1" as="geometry" />
        </mxCell>
        <mxCell id="VfczCMwQgirAFWGqFJcv-82" value="" style="ellipse;html=1;rounded=0;shadow=0;glass=0;sketch=0;fontSize=18;gradientColor=none;whiteSpace=wrap;" vertex="1" parent="1">
          <mxGeometry x="-590" y="510" width="40" height="40" as="geometry" />
        </mxCell>
        <mxCell id="VfczCMwQgirAFWGqFJcv-83" style="edgeStyle=none;rounded=0;orthogonalLoop=1;jettySize=auto;html=1;entryX=0;entryY=0.5;entryDx=0;entryDy=0;fontSize=18;" edge="1" parent="1" source="VfczCMwQgirAFWGqFJcv-86" target="VfczCMwQgirAFWGqFJcv-99">
          <mxGeometry relative="1" as="geometry" />
        </mxCell>
        <mxCell id="VfczCMwQgirAFWGqFJcv-84" style="edgeStyle=none;rounded=0;orthogonalLoop=1;jettySize=auto;html=1;entryX=0;entryY=0.5;entryDx=0;entryDy=0;fontSize=18;" edge="1" parent="1" source="VfczCMwQgirAFWGqFJcv-86" target="VfczCMwQgirAFWGqFJcv-110">
          <mxGeometry relative="1" as="geometry" />
        </mxCell>
        <mxCell id="VfczCMwQgirAFWGqFJcv-85" style="edgeStyle=none;rounded=0;orthogonalLoop=1;jettySize=auto;html=1;entryX=0;entryY=0.5;entryDx=0;entryDy=0;fontSize=18;" edge="1" parent="1" source="VfczCMwQgirAFWGqFJcv-86" target="VfczCMwQgirAFWGqFJcv-102">
          <mxGeometry relative="1" as="geometry" />
        </mxCell>
        <mxCell id="VfczCMwQgirAFWGqFJcv-86" value="" style="ellipse;html=1;rounded=0;shadow=0;glass=0;sketch=0;fontSize=18;gradientColor=none;whiteSpace=wrap;" vertex="1" parent="1">
          <mxGeometry x="-590" y="570" width="40" height="40" as="geometry" />
        </mxCell>
        <mxCell id="VfczCMwQgirAFWGqFJcv-87" style="edgeStyle=none;rounded=0;orthogonalLoop=1;jettySize=auto;html=1;entryX=0;entryY=0.5;entryDx=0;entryDy=0;fontSize=18;" edge="1" parent="1" source="VfczCMwQgirAFWGqFJcv-88" target="VfczCMwQgirAFWGqFJcv-107">
          <mxGeometry relative="1" as="geometry" />
        </mxCell>
        <mxCell id="VfczCMwQgirAFWGqFJcv-88" value="" style="ellipse;html=1;rounded=0;shadow=0;glass=0;sketch=0;fontSize=18;gradientColor=none;whiteSpace=wrap;" vertex="1" parent="1">
          <mxGeometry x="-590" y="630" width="40" height="40" as="geometry" />
        </mxCell>
        <mxCell id="VfczCMwQgirAFWGqFJcv-89" style="edgeStyle=none;rounded=0;orthogonalLoop=1;jettySize=auto;html=1;entryX=0;entryY=0.5;entryDx=0;entryDy=0;fontSize=18;" edge="1" parent="1" source="VfczCMwQgirAFWGqFJcv-91" target="VfczCMwQgirAFWGqFJcv-112">
          <mxGeometry relative="1" as="geometry" />
        </mxCell>
        <mxCell id="VfczCMwQgirAFWGqFJcv-90" style="edgeStyle=none;rounded=0;orthogonalLoop=1;jettySize=auto;html=1;entryX=0;entryY=0.5;entryDx=0;entryDy=0;fontSize=18;" edge="1" parent="1" source="VfczCMwQgirAFWGqFJcv-91" target="VfczCMwQgirAFWGqFJcv-104">
          <mxGeometry relative="1" as="geometry" />
        </mxCell>
        <mxCell id="VfczCMwQgirAFWGqFJcv-91" value="" style="ellipse;html=1;rounded=0;shadow=0;glass=0;sketch=0;fontSize=18;gradientColor=none;whiteSpace=wrap;" vertex="1" parent="1">
          <mxGeometry x="-590" y="690" width="40" height="40" as="geometry" />
        </mxCell>
        <mxCell id="VfczCMwQgirAFWGqFJcv-92" style="edgeStyle=none;rounded=0;orthogonalLoop=1;jettySize=auto;html=1;entryX=0;entryY=0.5;entryDx=0;entryDy=0;fontSize=18;" edge="1" parent="1" source="VfczCMwQgirAFWGqFJcv-94" target="VfczCMwQgirAFWGqFJcv-102">
          <mxGeometry relative="1" as="geometry" />
        </mxCell>
        <mxCell id="VfczCMwQgirAFWGqFJcv-93" style="edgeStyle=none;rounded=0;orthogonalLoop=1;jettySize=auto;html=1;entryX=0;entryY=0.5;entryDx=0;entryDy=0;fontSize=18;" edge="1" parent="1" source="VfczCMwQgirAFWGqFJcv-94" target="VfczCMwQgirAFWGqFJcv-104">
          <mxGeometry relative="1" as="geometry" />
        </mxCell>
        <mxCell id="VfczCMwQgirAFWGqFJcv-94" value="" style="ellipse;html=1;rounded=0;shadow=0;glass=0;sketch=0;fontSize=18;gradientColor=none;whiteSpace=wrap;" vertex="1" parent="1">
          <mxGeometry x="-590" y="750" width="40" height="40" as="geometry" />
        </mxCell>
        <mxCell id="VfczCMwQgirAFWGqFJcv-95" style="edgeStyle=none;rounded=0;orthogonalLoop=1;jettySize=auto;html=1;entryX=0;entryY=0.5;entryDx=0;entryDy=0;fontSize=18;" edge="1" parent="1" source="VfczCMwQgirAFWGqFJcv-97" target="VfczCMwQgirAFWGqFJcv-110">
          <mxGeometry relative="1" as="geometry" />
        </mxCell>
        <mxCell id="VfczCMwQgirAFWGqFJcv-96" style="edgeStyle=none;rounded=0;orthogonalLoop=1;jettySize=auto;html=1;entryX=0;entryY=0.5;entryDx=0;entryDy=0;fontSize=18;" edge="1" parent="1" source="VfczCMwQgirAFWGqFJcv-97" target="VfczCMwQgirAFWGqFJcv-107">
          <mxGeometry relative="1" as="geometry" />
        </mxCell>
        <mxCell id="VfczCMwQgirAFWGqFJcv-97" value="" style="ellipse;html=1;rounded=0;shadow=0;glass=0;sketch=0;fontSize=18;gradientColor=none;whiteSpace=wrap;" vertex="1" parent="1">
          <mxGeometry x="-590" y="810" width="40" height="40" as="geometry" />
        </mxCell>
        <mxCell id="VfczCMwQgirAFWGqFJcv-98" style="edgeStyle=none;rounded=0;orthogonalLoop=1;jettySize=auto;html=1;entryX=0;entryY=0.5;entryDx=0;entryDy=0;fontSize=18;" edge="1" parent="1" source="VfczCMwQgirAFWGqFJcv-99" target="VfczCMwQgirAFWGqFJcv-118">
          <mxGeometry relative="1" as="geometry" />
        </mxCell>
        <mxCell id="VfczCMwQgirAFWGqFJcv-99" value="" style="ellipse;html=1;rounded=0;shadow=0;glass=0;sketch=0;fontSize=18;gradientColor=none;whiteSpace=wrap;" vertex="1" parent="1">
          <mxGeometry x="-510" y="510" width="40" height="40" as="geometry" />
        </mxCell>
        <mxCell id="VfczCMwQgirAFWGqFJcv-100" style="edgeStyle=none;rounded=0;orthogonalLoop=1;jettySize=auto;html=1;entryX=0;entryY=0.5;entryDx=0;entryDy=0;fontSize=18;" edge="1" parent="1" source="VfczCMwQgirAFWGqFJcv-102" target="VfczCMwQgirAFWGqFJcv-123">
          <mxGeometry relative="1" as="geometry" />
        </mxCell>
        <mxCell id="VfczCMwQgirAFWGqFJcv-101" style="edgeStyle=none;rounded=0;orthogonalLoop=1;jettySize=auto;html=1;entryX=0;entryY=0.5;entryDx=0;entryDy=0;fontSize=18;" edge="1" parent="1" source="VfczCMwQgirAFWGqFJcv-102" target="VfczCMwQgirAFWGqFJcv-114">
          <mxGeometry relative="1" as="geometry" />
        </mxCell>
        <mxCell id="VfczCMwQgirAFWGqFJcv-102" value="" style="ellipse;html=1;rounded=0;shadow=0;glass=0;sketch=0;fontSize=18;gradientColor=none;whiteSpace=wrap;" vertex="1" parent="1">
          <mxGeometry x="-510" y="570" width="40" height="40" as="geometry" />
        </mxCell>
        <mxCell id="VfczCMwQgirAFWGqFJcv-103" style="edgeStyle=none;rounded=0;orthogonalLoop=1;jettySize=auto;html=1;entryX=0;entryY=0.5;entryDx=0;entryDy=0;fontSize=18;" edge="1" parent="1" source="VfczCMwQgirAFWGqFJcv-104" target="VfczCMwQgirAFWGqFJcv-118">
          <mxGeometry relative="1" as="geometry" />
        </mxCell>
        <mxCell id="VfczCMwQgirAFWGqFJcv-104" value="" style="ellipse;html=1;rounded=0;shadow=0;glass=0;sketch=0;fontSize=18;gradientColor=none;whiteSpace=wrap;" vertex="1" parent="1">
          <mxGeometry x="-510" y="630" width="40" height="40" as="geometry" />
        </mxCell>
        <mxCell id="VfczCMwQgirAFWGqFJcv-105" style="edgeStyle=none;rounded=0;orthogonalLoop=1;jettySize=auto;html=1;entryX=0;entryY=0.5;entryDx=0;entryDy=0;fontSize=18;" edge="1" parent="1" source="VfczCMwQgirAFWGqFJcv-107" target="VfczCMwQgirAFWGqFJcv-120">
          <mxGeometry relative="1" as="geometry" />
        </mxCell>
        <mxCell id="VfczCMwQgirAFWGqFJcv-106" style="edgeStyle=none;rounded=0;orthogonalLoop=1;jettySize=auto;html=1;entryX=0;entryY=0.5;entryDx=0;entryDy=0;fontSize=18;" edge="1" parent="1" source="VfczCMwQgirAFWGqFJcv-107" target="VfczCMwQgirAFWGqFJcv-129">
          <mxGeometry relative="1" as="geometry" />
        </mxCell>
        <mxCell id="VfczCMwQgirAFWGqFJcv-107" value="" style="ellipse;html=1;rounded=0;shadow=0;glass=0;sketch=0;fontSize=18;gradientColor=none;whiteSpace=wrap;" vertex="1" parent="1">
          <mxGeometry x="-510" y="690" width="40" height="40" as="geometry" />
        </mxCell>
        <mxCell id="VfczCMwQgirAFWGqFJcv-108" style="edgeStyle=none;rounded=0;orthogonalLoop=1;jettySize=auto;html=1;entryX=0;entryY=0.5;entryDx=0;entryDy=0;fontSize=18;" edge="1" parent="1" source="VfczCMwQgirAFWGqFJcv-110" target="VfczCMwQgirAFWGqFJcv-123">
          <mxGeometry relative="1" as="geometry" />
        </mxCell>
        <mxCell id="VfczCMwQgirAFWGqFJcv-109" style="edgeStyle=none;rounded=0;orthogonalLoop=1;jettySize=auto;html=1;entryX=0;entryY=0.5;entryDx=0;entryDy=0;fontSize=18;" edge="1" parent="1" source="VfczCMwQgirAFWGqFJcv-110" target="VfczCMwQgirAFWGqFJcv-126">
          <mxGeometry relative="1" as="geometry" />
        </mxCell>
        <mxCell id="VfczCMwQgirAFWGqFJcv-110" value="" style="ellipse;html=1;rounded=0;shadow=0;glass=0;sketch=0;fontSize=18;gradientColor=none;whiteSpace=wrap;" vertex="1" parent="1">
          <mxGeometry x="-510" y="750" width="40" height="40" as="geometry" />
        </mxCell>
        <mxCell id="VfczCMwQgirAFWGqFJcv-111" style="edgeStyle=none;rounded=0;orthogonalLoop=1;jettySize=auto;html=1;entryX=0;entryY=0.5;entryDx=0;entryDy=0;fontSize=18;" edge="1" parent="1" source="VfczCMwQgirAFWGqFJcv-112" target="VfczCMwQgirAFWGqFJcv-114">
          <mxGeometry relative="1" as="geometry" />
        </mxCell>
        <mxCell id="VfczCMwQgirAFWGqFJcv-112" value="" style="ellipse;html=1;rounded=0;shadow=0;glass=0;sketch=0;fontSize=18;gradientColor=none;whiteSpace=wrap;" vertex="1" parent="1">
          <mxGeometry x="-510" y="810" width="40" height="40" as="geometry" />
        </mxCell>
        <mxCell id="VfczCMwQgirAFWGqFJcv-113" style="rounded=0;orthogonalLoop=1;jettySize=auto;html=1;entryX=0;entryY=0.5;entryDx=0;entryDy=0;fontSize=18;" edge="1" parent="1" source="VfczCMwQgirAFWGqFJcv-114" target="VfczCMwQgirAFWGqFJcv-135">
          <mxGeometry relative="1" as="geometry" />
        </mxCell>
        <mxCell id="VfczCMwQgirAFWGqFJcv-114" value="" style="ellipse;html=1;rounded=0;shadow=0;glass=0;sketch=0;fontSize=18;gradientColor=none;whiteSpace=wrap;" vertex="1" parent="1">
          <mxGeometry x="-430" y="510" width="40" height="40" as="geometry" />
        </mxCell>
        <mxCell id="VfczCMwQgirAFWGqFJcv-115" style="edgeStyle=none;rounded=0;orthogonalLoop=1;jettySize=auto;html=1;entryX=0;entryY=0.5;entryDx=0;entryDy=0;fontSize=18;" edge="1" parent="1" source="VfczCMwQgirAFWGqFJcv-118" target="VfczCMwQgirAFWGqFJcv-131">
          <mxGeometry relative="1" as="geometry" />
        </mxCell>
        <mxCell id="VfczCMwQgirAFWGqFJcv-116" style="edgeStyle=none;rounded=0;orthogonalLoop=1;jettySize=auto;html=1;entryX=0;entryY=0.5;entryDx=0;entryDy=0;fontSize=18;" edge="1" parent="1" source="VfczCMwQgirAFWGqFJcv-118" target="VfczCMwQgirAFWGqFJcv-139">
          <mxGeometry relative="1" as="geometry" />
        </mxCell>
        <mxCell id="VfczCMwQgirAFWGqFJcv-117" style="edgeStyle=none;rounded=0;orthogonalLoop=1;jettySize=auto;html=1;entryX=0;entryY=0.5;entryDx=0;entryDy=0;fontSize=18;" edge="1" parent="1" source="VfczCMwQgirAFWGqFJcv-118" target="VfczCMwQgirAFWGqFJcv-133">
          <mxGeometry relative="1" as="geometry" />
        </mxCell>
        <mxCell id="VfczCMwQgirAFWGqFJcv-118" value="" style="ellipse;html=1;rounded=0;shadow=0;glass=0;sketch=0;fontSize=18;gradientColor=none;whiteSpace=wrap;" vertex="1" parent="1">
          <mxGeometry x="-430" y="570" width="40" height="40" as="geometry" />
        </mxCell>
        <mxCell id="VfczCMwQgirAFWGqFJcv-119" style="edgeStyle=none;rounded=0;orthogonalLoop=1;jettySize=auto;html=1;entryX=0;entryY=0.5;entryDx=0;entryDy=0;fontSize=18;" edge="1" parent="1" source="VfczCMwQgirAFWGqFJcv-120" target="VfczCMwQgirAFWGqFJcv-137">
          <mxGeometry relative="1" as="geometry" />
        </mxCell>
        <mxCell id="VfczCMwQgirAFWGqFJcv-120" value="" style="ellipse;html=1;rounded=0;shadow=0;glass=0;sketch=0;fontSize=18;gradientColor=none;whiteSpace=wrap;" vertex="1" parent="1">
          <mxGeometry x="-430" y="630" width="40" height="40" as="geometry" />
        </mxCell>
        <mxCell id="VfczCMwQgirAFWGqFJcv-121" style="edgeStyle=none;rounded=0;orthogonalLoop=1;jettySize=auto;html=1;entryX=0;entryY=0.5;entryDx=0;entryDy=0;fontSize=18;" edge="1" parent="1" source="VfczCMwQgirAFWGqFJcv-123" target="VfczCMwQgirAFWGqFJcv-141">
          <mxGeometry relative="1" as="geometry" />
        </mxCell>
        <mxCell id="VfczCMwQgirAFWGqFJcv-122" style="edgeStyle=none;rounded=0;orthogonalLoop=1;jettySize=auto;html=1;entryX=0;entryY=0.5;entryDx=0;entryDy=0;fontSize=18;" edge="1" parent="1" source="VfczCMwQgirAFWGqFJcv-123" target="VfczCMwQgirAFWGqFJcv-135">
          <mxGeometry relative="1" as="geometry" />
        </mxCell>
        <mxCell id="VfczCMwQgirAFWGqFJcv-123" value="" style="ellipse;html=1;rounded=0;shadow=0;glass=0;sketch=0;fontSize=18;gradientColor=none;whiteSpace=wrap;" vertex="1" parent="1">
          <mxGeometry x="-430" y="690" width="40" height="40" as="geometry" />
        </mxCell>
        <mxCell id="VfczCMwQgirAFWGqFJcv-124" style="edgeStyle=none;rounded=0;orthogonalLoop=1;jettySize=auto;html=1;entryX=0;entryY=0.5;entryDx=0;entryDy=0;fontSize=18;" edge="1" parent="1" source="VfczCMwQgirAFWGqFJcv-126" target="VfczCMwQgirAFWGqFJcv-133">
          <mxGeometry relative="1" as="geometry" />
        </mxCell>
        <mxCell id="VfczCMwQgirAFWGqFJcv-125" style="edgeStyle=none;rounded=0;orthogonalLoop=1;jettySize=auto;html=1;entryX=0;entryY=0.5;entryDx=0;entryDy=0;fontSize=18;" edge="1" parent="1" source="VfczCMwQgirAFWGqFJcv-126" target="VfczCMwQgirAFWGqFJcv-135">
          <mxGeometry relative="1" as="geometry" />
        </mxCell>
        <mxCell id="VfczCMwQgirAFWGqFJcv-126" value="" style="ellipse;html=1;rounded=0;shadow=0;glass=0;sketch=0;fontSize=18;gradientColor=none;whiteSpace=wrap;" vertex="1" parent="1">
          <mxGeometry x="-430" y="750" width="40" height="40" as="geometry" />
        </mxCell>
        <mxCell id="VfczCMwQgirAFWGqFJcv-127" style="edgeStyle=none;rounded=0;orthogonalLoop=1;jettySize=auto;html=1;entryX=0;entryY=0.5;entryDx=0;entryDy=0;fontSize=18;" edge="1" parent="1" source="VfczCMwQgirAFWGqFJcv-129" target="VfczCMwQgirAFWGqFJcv-139">
          <mxGeometry relative="1" as="geometry" />
        </mxCell>
        <mxCell id="VfczCMwQgirAFWGqFJcv-128" style="edgeStyle=none;rounded=0;orthogonalLoop=1;jettySize=auto;html=1;entryX=0;entryY=0.5;entryDx=0;entryDy=0;fontSize=18;" edge="1" parent="1" source="VfczCMwQgirAFWGqFJcv-129" target="VfczCMwQgirAFWGqFJcv-137">
          <mxGeometry relative="1" as="geometry" />
        </mxCell>
        <mxCell id="VfczCMwQgirAFWGqFJcv-129" value="" style="ellipse;html=1;rounded=0;shadow=0;glass=0;sketch=0;fontSize=18;gradientColor=none;whiteSpace=wrap;" vertex="1" parent="1">
          <mxGeometry x="-430" y="810" width="40" height="40" as="geometry" />
        </mxCell>
        <mxCell id="VfczCMwQgirAFWGqFJcv-130" style="edgeStyle=none;rounded=0;orthogonalLoop=1;jettySize=auto;html=1;entryX=0;entryY=0.5;entryDx=0;entryDy=0;fontSize=18;" edge="1" parent="1" source="VfczCMwQgirAFWGqFJcv-131" target="VfczCMwQgirAFWGqFJcv-142">
          <mxGeometry relative="1" as="geometry" />
        </mxCell>
        <mxCell id="VfczCMwQgirAFWGqFJcv-131" value="" style="ellipse;html=1;rounded=0;shadow=0;glass=0;sketch=0;fontSize=18;gradientColor=none;whiteSpace=wrap;" vertex="1" parent="1">
          <mxGeometry x="-350" y="510" width="40" height="40" as="geometry" />
        </mxCell>
        <mxCell id="VfczCMwQgirAFWGqFJcv-132" style="edgeStyle=none;rounded=0;orthogonalLoop=1;jettySize=auto;html=1;fontSize=18;" edge="1" parent="1" source="VfczCMwQgirAFWGqFJcv-133">
          <mxGeometry relative="1" as="geometry">
            <mxPoint x="-270" y="690" as="targetPoint" />
          </mxGeometry>
        </mxCell>
        <mxCell id="VfczCMwQgirAFWGqFJcv-133" value="" style="ellipse;html=1;rounded=0;shadow=0;glass=0;sketch=0;fontSize=18;gradientColor=none;whiteSpace=wrap;" vertex="1" parent="1">
          <mxGeometry x="-350" y="570" width="40" height="40" as="geometry" />
        </mxCell>
        <mxCell id="VfczCMwQgirAFWGqFJcv-134" style="edgeStyle=none;rounded=0;orthogonalLoop=1;jettySize=auto;html=1;fontSize=18;" edge="1" parent="1" source="VfczCMwQgirAFWGqFJcv-135">
          <mxGeometry relative="1" as="geometry">
            <mxPoint x="-270" y="690" as="targetPoint" />
          </mxGeometry>
        </mxCell>
        <mxCell id="VfczCMwQgirAFWGqFJcv-135" value="" style="ellipse;html=1;rounded=0;shadow=0;glass=0;sketch=0;fontSize=18;gradientColor=none;whiteSpace=wrap;" vertex="1" parent="1">
          <mxGeometry x="-350" y="630" width="40" height="40" as="geometry" />
        </mxCell>
        <mxCell id="VfczCMwQgirAFWGqFJcv-136" style="edgeStyle=none;rounded=0;orthogonalLoop=1;jettySize=auto;html=1;fontSize=18;" edge="1" parent="1" source="VfczCMwQgirAFWGqFJcv-137">
          <mxGeometry relative="1" as="geometry">
            <mxPoint x="-270" y="690" as="targetPoint" />
          </mxGeometry>
        </mxCell>
        <mxCell id="VfczCMwQgirAFWGqFJcv-137" value="" style="ellipse;html=1;rounded=0;shadow=0;glass=0;sketch=0;fontSize=18;gradientColor=none;whiteSpace=wrap;" vertex="1" parent="1">
          <mxGeometry x="-350" y="690" width="40" height="40" as="geometry" />
        </mxCell>
        <mxCell id="VfczCMwQgirAFWGqFJcv-138" style="edgeStyle=none;rounded=0;orthogonalLoop=1;jettySize=auto;html=1;entryX=0;entryY=0.5;entryDx=0;entryDy=0;fontSize=18;" edge="1" parent="1" source="VfczCMwQgirAFWGqFJcv-139" target="VfczCMwQgirAFWGqFJcv-142">
          <mxGeometry relative="1" as="geometry" />
        </mxCell>
        <mxCell id="VfczCMwQgirAFWGqFJcv-139" value="" style="ellipse;html=1;rounded=0;shadow=0;glass=0;sketch=0;fontSize=18;gradientColor=none;whiteSpace=wrap;" vertex="1" parent="1">
          <mxGeometry x="-350" y="750" width="40" height="40" as="geometry" />
        </mxCell>
        <mxCell id="VfczCMwQgirAFWGqFJcv-140" style="edgeStyle=none;rounded=0;orthogonalLoop=1;jettySize=auto;html=1;entryX=0;entryY=0.5;entryDx=0;entryDy=0;fontSize=18;" edge="1" parent="1" source="VfczCMwQgirAFWGqFJcv-141" target="VfczCMwQgirAFWGqFJcv-142">
          <mxGeometry relative="1" as="geometry" />
        </mxCell>
        <mxCell id="VfczCMwQgirAFWGqFJcv-141" value="" style="ellipse;html=1;rounded=0;shadow=0;glass=0;sketch=0;fontSize=18;gradientColor=none;whiteSpace=wrap;" vertex="1" parent="1">
          <mxGeometry x="-350" y="810" width="40" height="40" as="geometry" />
        </mxCell>
        <mxCell id="VfczCMwQgirAFWGqFJcv-142" value="" style="ellipse;whiteSpace=wrap;html=1;rounded=0;shadow=0;glass=0;sketch=0;fontSize=18;gradientColor=none;" vertex="1" parent="1">
          <mxGeometry x="-270" y="670" width="40" height="40" as="geometry" />
        </mxCell>
        <mxCell id="VfczCMwQgirAFWGqFJcv-143" value="Fully connected layer and dropout" style="text;html=1;strokeColor=none;fillColor=none;align=center;verticalAlign=middle;whiteSpace=wrap;rounded=0;shadow=1;glass=0;sketch=1;fontSize=18;" vertex="1" parent="1">
          <mxGeometry x="-560" y="880" width="280" height="30" as="geometry" />
        </mxCell>
        <mxCell id="VfczCMwQgirAFWGqFJcv-144" value="" style="rounded=0;whiteSpace=wrap;html=1;shadow=0;glass=0;sketch=0;fontSize=18;fillColor=#f8cecc;strokeColor=#b85450;" vertex="1" parent="1">
          <mxGeometry x="-1460" y="82.5" width="40" height="40" as="geometry" />
        </mxCell>
        <mxCell id="VfczCMwQgirAFWGqFJcv-145" value="" style="rounded=0;whiteSpace=wrap;html=1;shadow=0;glass=0;sketch=0;fontSize=18;gradientColor=none;" vertex="1" parent="1">
          <mxGeometry x="-1420" y="82.5" width="40" height="40" as="geometry" />
        </mxCell>
        <mxCell id="VfczCMwQgirAFWGqFJcv-146" value="" style="rounded=0;whiteSpace=wrap;html=1;shadow=0;glass=0;sketch=0;fontSize=18;gradientColor=none;" vertex="1" parent="1">
          <mxGeometry x="-1380" y="82.5" width="40" height="40" as="geometry" />
        </mxCell>
        <mxCell id="VfczCMwQgirAFWGqFJcv-147" value="" style="rounded=0;whiteSpace=wrap;html=1;shadow=0;glass=0;sketch=0;fontSize=18;fillColor=#f8cecc;strokeColor=#b85450;" vertex="1" parent="1">
          <mxGeometry x="-1340" y="82.5" width="40" height="40" as="geometry" />
        </mxCell>
        <mxCell id="VfczCMwQgirAFWGqFJcv-148" value="" style="rounded=0;whiteSpace=wrap;html=1;shadow=0;glass=0;sketch=0;fontSize=18;gradientColor=none;" vertex="1" parent="1">
          <mxGeometry x="-1300" y="82.5" width="40" height="40" as="geometry" />
        </mxCell>
        <mxCell id="VfczCMwQgirAFWGqFJcv-149" value="" style="rounded=0;whiteSpace=wrap;html=1;shadow=0;glass=0;sketch=0;fontSize=18;gradientColor=none;" vertex="1" parent="1">
          <mxGeometry x="-1260" y="82.5" width="40" height="40" as="geometry" />
        </mxCell>
        <mxCell id="VfczCMwQgirAFWGqFJcv-150" value="" style="rounded=0;whiteSpace=wrap;html=1;shadow=0;glass=0;sketch=0;fontSize=18;gradientColor=none;" vertex="1" parent="1">
          <mxGeometry x="-1460" y="122.5" width="40" height="40" as="geometry" />
        </mxCell>
        <mxCell id="VfczCMwQgirAFWGqFJcv-151" value="" style="rounded=0;whiteSpace=wrap;html=1;shadow=0;glass=0;sketch=0;fontSize=18;fillColor=#d5e8d4;strokeColor=#82b366;" vertex="1" parent="1">
          <mxGeometry x="-1420" y="122.5" width="40" height="40" as="geometry" />
        </mxCell>
        <mxCell id="VfczCMwQgirAFWGqFJcv-152" value="" style="rounded=0;whiteSpace=wrap;html=1;shadow=0;glass=0;sketch=0;fontSize=18;gradientColor=none;" vertex="1" parent="1">
          <mxGeometry x="-1380" y="122.5" width="40" height="40" as="geometry" />
        </mxCell>
        <mxCell id="VfczCMwQgirAFWGqFJcv-153" value="" style="rounded=0;whiteSpace=wrap;html=1;shadow=0;glass=0;sketch=0;fontSize=18;gradientColor=none;" vertex="1" parent="1">
          <mxGeometry x="-1340" y="122.5" width="40" height="40" as="geometry" />
        </mxCell>
        <mxCell id="VfczCMwQgirAFWGqFJcv-154" value="" style="rounded=0;whiteSpace=wrap;html=1;shadow=0;glass=0;sketch=0;fontSize=18;gradientColor=none;" vertex="1" parent="1">
          <mxGeometry x="-1300" y="122.5" width="40" height="40" as="geometry" />
        </mxCell>
        <mxCell id="VfczCMwQgirAFWGqFJcv-155" value="" style="rounded=0;whiteSpace=wrap;html=1;shadow=0;glass=0;sketch=0;fontSize=18;gradientColor=none;" vertex="1" parent="1">
          <mxGeometry x="-1260" y="122.5" width="40" height="40" as="geometry" />
        </mxCell>
        <mxCell id="VfczCMwQgirAFWGqFJcv-156" value="" style="rounded=0;whiteSpace=wrap;html=1;shadow=0;glass=0;sketch=0;fontSize=18;gradientColor=none;" vertex="1" parent="1">
          <mxGeometry x="-1460" y="162.5" width="40" height="40" as="geometry" />
        </mxCell>
        <mxCell id="VfczCMwQgirAFWGqFJcv-157" value="" style="rounded=0;whiteSpace=wrap;html=1;shadow=0;glass=0;sketch=0;fontSize=18;gradientColor=none;" vertex="1" parent="1">
          <mxGeometry x="-1420" y="162.5" width="40" height="40" as="geometry" />
        </mxCell>
        <mxCell id="VfczCMwQgirAFWGqFJcv-158" value="" style="rounded=0;whiteSpace=wrap;html=1;shadow=0;glass=0;sketch=0;fontSize=18;fillColor=#dae8fc;strokeColor=#6c8ebf;" vertex="1" parent="1">
          <mxGeometry x="-1380" y="162.5" width="40" height="40" as="geometry" />
        </mxCell>
        <mxCell id="VfczCMwQgirAFWGqFJcv-159" value="" style="rounded=0;whiteSpace=wrap;html=1;shadow=0;glass=0;sketch=0;fontSize=18;gradientColor=none;" vertex="1" parent="1">
          <mxGeometry x="-1340" y="162.5" width="40" height="40" as="geometry" />
        </mxCell>
        <mxCell id="VfczCMwQgirAFWGqFJcv-160" value="" style="rounded=0;whiteSpace=wrap;html=1;shadow=0;glass=0;sketch=0;fontSize=18;gradientColor=none;" vertex="1" parent="1">
          <mxGeometry x="-1300" y="162.5" width="40" height="40" as="geometry" />
        </mxCell>
        <mxCell id="VfczCMwQgirAFWGqFJcv-494" style="edgeStyle=orthogonalEdgeStyle;rounded=0;orthogonalLoop=1;jettySize=auto;html=1;entryX=0;entryY=0.75;entryDx=0;entryDy=0;" edge="1" parent="1" source="VfczCMwQgirAFWGqFJcv-162" target="VfczCMwQgirAFWGqFJcv-241">
          <mxGeometry relative="1" as="geometry">
            <Array as="points">
              <mxPoint x="-1228" y="183" />
            </Array>
          </mxGeometry>
        </mxCell>
        <mxCell id="VfczCMwQgirAFWGqFJcv-162" value="" style="rounded=0;whiteSpace=wrap;html=1;shadow=0;glass=0;sketch=0;fontSize=18;fillColor=#dae8fc;strokeColor=#6c8ebf;" vertex="1" parent="1">
          <mxGeometry x="-1260" y="162.5" width="40" height="40" as="geometry" />
        </mxCell>
        <mxCell id="VfczCMwQgirAFWGqFJcv-163" value="" style="rounded=0;whiteSpace=wrap;html=1;shadow=0;glass=0;sketch=0;fontSize=18;gradientColor=none;" vertex="1" parent="1">
          <mxGeometry x="-1460" y="202.5" width="40" height="40" as="geometry" />
        </mxCell>
        <mxCell id="VfczCMwQgirAFWGqFJcv-164" value="" style="rounded=0;whiteSpace=wrap;html=1;shadow=0;glass=0;sketch=0;fontSize=18;gradientColor=none;" vertex="1" parent="1">
          <mxGeometry x="-1420" y="202.5" width="40" height="40" as="geometry" />
        </mxCell>
        <mxCell id="VfczCMwQgirAFWGqFJcv-165" value="" style="rounded=0;whiteSpace=wrap;html=1;shadow=0;glass=0;sketch=0;fontSize=18;gradientColor=none;" vertex="1" parent="1">
          <mxGeometry x="-1380" y="202.5" width="40" height="40" as="geometry" />
        </mxCell>
        <mxCell id="VfczCMwQgirAFWGqFJcv-166" value="" style="rounded=0;whiteSpace=wrap;html=1;shadow=0;glass=0;sketch=0;fontSize=18;gradientColor=none;" vertex="1" parent="1">
          <mxGeometry x="-1340" y="202.5" width="40" height="40" as="geometry" />
        </mxCell>
        <mxCell id="VfczCMwQgirAFWGqFJcv-167" value="" style="rounded=0;whiteSpace=wrap;html=1;shadow=0;glass=0;sketch=0;fontSize=18;fillColor=#fff2cc;strokeColor=#d6b656;" vertex="1" parent="1">
          <mxGeometry x="-1300" y="202.5" width="40" height="40" as="geometry" />
        </mxCell>
        <mxCell id="VfczCMwQgirAFWGqFJcv-168" value="" style="rounded=0;whiteSpace=wrap;html=1;shadow=0;glass=0;sketch=0;fontSize=18;gradientColor=none;" vertex="1" parent="1">
          <mxGeometry x="-1260" y="202.5" width="40" height="40" as="geometry" />
        </mxCell>
        <mxCell id="VfczCMwQgirAFWGqFJcv-170" value="" style="rounded=0;whiteSpace=wrap;html=1;" vertex="1" parent="1">
          <mxGeometry x="-1157" y="70" width="30" height="30" as="geometry" />
        </mxCell>
        <mxCell id="VfczCMwQgirAFWGqFJcv-218" value="" style="rounded=0;whiteSpace=wrap;html=1;" vertex="1" parent="1">
          <mxGeometry x="-1127" y="70" width="30" height="30" as="geometry" />
        </mxCell>
        <mxCell id="VfczCMwQgirAFWGqFJcv-219" value="" style="rounded=0;whiteSpace=wrap;html=1;" vertex="1" parent="1">
          <mxGeometry x="-1097" y="70" width="30" height="30" as="geometry" />
        </mxCell>
        <mxCell id="VfczCMwQgirAFWGqFJcv-220" value="" style="rounded=0;whiteSpace=wrap;html=1;" vertex="1" parent="1">
          <mxGeometry x="-1067" y="70" width="30" height="30" as="geometry" />
        </mxCell>
        <mxCell id="VfczCMwQgirAFWGqFJcv-221" value="" style="rounded=0;whiteSpace=wrap;html=1;" vertex="1" parent="1">
          <mxGeometry x="-1037" y="70" width="30" height="30" as="geometry" />
        </mxCell>
        <mxCell id="VfczCMwQgirAFWGqFJcv-222" value="" style="rounded=0;whiteSpace=wrap;html=1;" vertex="1" parent="1">
          <mxGeometry x="-1007" y="70" width="30" height="30" as="geometry" />
        </mxCell>
        <mxCell id="VfczCMwQgirAFWGqFJcv-223" value="" style="rounded=0;whiteSpace=wrap;html=1;" vertex="1" parent="1">
          <mxGeometry x="-977" y="70" width="30" height="30" as="geometry" />
        </mxCell>
        <mxCell id="VfczCMwQgirAFWGqFJcv-224" value="" style="rounded=0;whiteSpace=wrap;html=1;" vertex="1" parent="1">
          <mxGeometry x="-947" y="70" width="30" height="30" as="geometry" />
        </mxCell>
        <mxCell id="VfczCMwQgirAFWGqFJcv-225" value="" style="rounded=0;whiteSpace=wrap;html=1;" vertex="1" parent="1">
          <mxGeometry x="-1157" y="100" width="30" height="30" as="geometry" />
        </mxCell>
        <mxCell id="VfczCMwQgirAFWGqFJcv-226" value="" style="rounded=0;whiteSpace=wrap;html=1;" vertex="1" parent="1">
          <mxGeometry x="-1127" y="100" width="30" height="30" as="geometry" />
        </mxCell>
        <mxCell id="VfczCMwQgirAFWGqFJcv-227" value="" style="rounded=0;whiteSpace=wrap;html=1;" vertex="1" parent="1">
          <mxGeometry x="-1097" y="100" width="30" height="30" as="geometry" />
        </mxCell>
        <mxCell id="VfczCMwQgirAFWGqFJcv-228" value="" style="rounded=0;whiteSpace=wrap;html=1;" vertex="1" parent="1">
          <mxGeometry x="-1067" y="100" width="30" height="30" as="geometry" />
        </mxCell>
        <mxCell id="VfczCMwQgirAFWGqFJcv-229" value="" style="rounded=0;whiteSpace=wrap;html=1;" vertex="1" parent="1">
          <mxGeometry x="-1037" y="100" width="30" height="30" as="geometry" />
        </mxCell>
        <mxCell id="VfczCMwQgirAFWGqFJcv-230" value="" style="rounded=0;whiteSpace=wrap;html=1;" vertex="1" parent="1">
          <mxGeometry x="-1007" y="100" width="30" height="30" as="geometry" />
        </mxCell>
        <mxCell id="VfczCMwQgirAFWGqFJcv-231" value="" style="rounded=0;whiteSpace=wrap;html=1;" vertex="1" parent="1">
          <mxGeometry x="-977" y="100" width="30" height="30" as="geometry" />
        </mxCell>
        <mxCell id="VfczCMwQgirAFWGqFJcv-232" value="" style="rounded=0;whiteSpace=wrap;html=1;" vertex="1" parent="1">
          <mxGeometry x="-947" y="100" width="30" height="30" as="geometry" />
        </mxCell>
        <mxCell id="VfczCMwQgirAFWGqFJcv-233" value="" style="rounded=0;whiteSpace=wrap;html=1;" vertex="1" parent="1">
          <mxGeometry x="-1157" y="130" width="30" height="30" as="geometry" />
        </mxCell>
        <mxCell id="VfczCMwQgirAFWGqFJcv-234" value="" style="rounded=0;whiteSpace=wrap;html=1;" vertex="1" parent="1">
          <mxGeometry x="-1127" y="130" width="30" height="30" as="geometry" />
        </mxCell>
        <mxCell id="VfczCMwQgirAFWGqFJcv-235" value="" style="rounded=0;whiteSpace=wrap;html=1;" vertex="1" parent="1">
          <mxGeometry x="-1097" y="130" width="30" height="30" as="geometry" />
        </mxCell>
        <mxCell id="VfczCMwQgirAFWGqFJcv-236" value="" style="rounded=0;whiteSpace=wrap;html=1;" vertex="1" parent="1">
          <mxGeometry x="-1067" y="130" width="30" height="30" as="geometry" />
        </mxCell>
        <mxCell id="VfczCMwQgirAFWGqFJcv-237" value="" style="rounded=0;whiteSpace=wrap;html=1;" vertex="1" parent="1">
          <mxGeometry x="-1037" y="130" width="30" height="30" as="geometry" />
        </mxCell>
        <mxCell id="VfczCMwQgirAFWGqFJcv-238" value="" style="rounded=0;whiteSpace=wrap;html=1;" vertex="1" parent="1">
          <mxGeometry x="-1007" y="130" width="30" height="30" as="geometry" />
        </mxCell>
        <mxCell id="VfczCMwQgirAFWGqFJcv-239" value="" style="rounded=0;whiteSpace=wrap;html=1;" vertex="1" parent="1">
          <mxGeometry x="-977" y="130" width="30" height="30" as="geometry" />
        </mxCell>
        <mxCell id="VfczCMwQgirAFWGqFJcv-240" value="" style="rounded=0;whiteSpace=wrap;html=1;" vertex="1" parent="1">
          <mxGeometry x="-947" y="130" width="30" height="30" as="geometry" />
        </mxCell>
        <mxCell id="VfczCMwQgirAFWGqFJcv-241" value="" style="rounded=0;whiteSpace=wrap;html=1;" vertex="1" parent="1">
          <mxGeometry x="-1157" y="160" width="30" height="30" as="geometry" />
        </mxCell>
        <mxCell id="VfczCMwQgirAFWGqFJcv-242" value="" style="rounded=0;whiteSpace=wrap;html=1;" vertex="1" parent="1">
          <mxGeometry x="-1127" y="160" width="30" height="30" as="geometry" />
        </mxCell>
        <mxCell id="VfczCMwQgirAFWGqFJcv-243" value="" style="rounded=0;whiteSpace=wrap;html=1;" vertex="1" parent="1">
          <mxGeometry x="-1097" y="160" width="30" height="30" as="geometry" />
        </mxCell>
        <mxCell id="VfczCMwQgirAFWGqFJcv-244" value="" style="rounded=0;whiteSpace=wrap;html=1;" vertex="1" parent="1">
          <mxGeometry x="-1067" y="160" width="30" height="30" as="geometry" />
        </mxCell>
        <mxCell id="VfczCMwQgirAFWGqFJcv-245" value="" style="rounded=0;whiteSpace=wrap;html=1;" vertex="1" parent="1">
          <mxGeometry x="-1037" y="160" width="30" height="30" as="geometry" />
        </mxCell>
        <mxCell id="VfczCMwQgirAFWGqFJcv-246" value="" style="rounded=0;whiteSpace=wrap;html=1;" vertex="1" parent="1">
          <mxGeometry x="-1007" y="160" width="30" height="30" as="geometry" />
        </mxCell>
        <mxCell id="VfczCMwQgirAFWGqFJcv-247" value="" style="rounded=0;whiteSpace=wrap;html=1;" vertex="1" parent="1">
          <mxGeometry x="-977" y="160" width="30" height="30" as="geometry" />
        </mxCell>
        <mxCell id="VfczCMwQgirAFWGqFJcv-248" value="" style="rounded=0;whiteSpace=wrap;html=1;" vertex="1" parent="1">
          <mxGeometry x="-947" y="160" width="30" height="30" as="geometry" />
        </mxCell>
        <mxCell id="VfczCMwQgirAFWGqFJcv-249" value="" style="rounded=0;whiteSpace=wrap;html=1;" vertex="1" parent="1">
          <mxGeometry x="-1157" y="190" width="30" height="30" as="geometry" />
        </mxCell>
        <mxCell id="VfczCMwQgirAFWGqFJcv-250" value="" style="rounded=0;whiteSpace=wrap;html=1;" vertex="1" parent="1">
          <mxGeometry x="-1127" y="190" width="30" height="30" as="geometry" />
        </mxCell>
        <mxCell id="VfczCMwQgirAFWGqFJcv-251" value="" style="rounded=0;whiteSpace=wrap;html=1;" vertex="1" parent="1">
          <mxGeometry x="-1097" y="190" width="30" height="30" as="geometry" />
        </mxCell>
        <mxCell id="VfczCMwQgirAFWGqFJcv-252" value="" style="rounded=0;whiteSpace=wrap;html=1;" vertex="1" parent="1">
          <mxGeometry x="-1067" y="190" width="30" height="30" as="geometry" />
        </mxCell>
        <mxCell id="VfczCMwQgirAFWGqFJcv-253" value="" style="rounded=0;whiteSpace=wrap;html=1;" vertex="1" parent="1">
          <mxGeometry x="-1037" y="190" width="30" height="30" as="geometry" />
        </mxCell>
        <mxCell id="VfczCMwQgirAFWGqFJcv-254" value="" style="rounded=0;whiteSpace=wrap;html=1;" vertex="1" parent="1">
          <mxGeometry x="-1007" y="190" width="30" height="30" as="geometry" />
        </mxCell>
        <mxCell id="VfczCMwQgirAFWGqFJcv-255" value="" style="rounded=0;whiteSpace=wrap;html=1;" vertex="1" parent="1">
          <mxGeometry x="-977" y="190" width="30" height="30" as="geometry" />
        </mxCell>
        <mxCell id="VfczCMwQgirAFWGqFJcv-256" value="" style="rounded=0;whiteSpace=wrap;html=1;" vertex="1" parent="1">
          <mxGeometry x="-947" y="190" width="30" height="30" as="geometry" />
        </mxCell>
        <mxCell id="VfczCMwQgirAFWGqFJcv-257" value="" style="rounded=0;whiteSpace=wrap;html=1;" vertex="1" parent="1">
          <mxGeometry x="-1157" y="220" width="30" height="30" as="geometry" />
        </mxCell>
        <mxCell id="VfczCMwQgirAFWGqFJcv-258" value="" style="rounded=0;whiteSpace=wrap;html=1;" vertex="1" parent="1">
          <mxGeometry x="-1127" y="220" width="30" height="30" as="geometry" />
        </mxCell>
        <mxCell id="VfczCMwQgirAFWGqFJcv-259" value="" style="rounded=0;whiteSpace=wrap;html=1;" vertex="1" parent="1">
          <mxGeometry x="-1097" y="220" width="30" height="30" as="geometry" />
        </mxCell>
        <mxCell id="VfczCMwQgirAFWGqFJcv-260" value="" style="rounded=0;whiteSpace=wrap;html=1;" vertex="1" parent="1">
          <mxGeometry x="-1067" y="220" width="30" height="30" as="geometry" />
        </mxCell>
        <mxCell id="VfczCMwQgirAFWGqFJcv-261" value="" style="rounded=0;whiteSpace=wrap;html=1;" vertex="1" parent="1">
          <mxGeometry x="-1037" y="220" width="30" height="30" as="geometry" />
        </mxCell>
        <mxCell id="VfczCMwQgirAFWGqFJcv-262" value="" style="rounded=0;whiteSpace=wrap;html=1;" vertex="1" parent="1">
          <mxGeometry x="-1007" y="220" width="30" height="30" as="geometry" />
        </mxCell>
        <mxCell id="VfczCMwQgirAFWGqFJcv-263" value="" style="rounded=0;whiteSpace=wrap;html=1;" vertex="1" parent="1">
          <mxGeometry x="-977" y="220" width="30" height="30" as="geometry" />
        </mxCell>
        <mxCell id="VfczCMwQgirAFWGqFJcv-264" value="" style="rounded=0;whiteSpace=wrap;html=1;" vertex="1" parent="1">
          <mxGeometry x="-947" y="220" width="30" height="30" as="geometry" />
        </mxCell>
        <mxCell id="VfczCMwQgirAFWGqFJcv-302" value="" style="rounded=0;whiteSpace=wrap;html=1;" vertex="1" parent="1">
          <mxGeometry x="-917" y="70" width="30" height="30" as="geometry" />
        </mxCell>
        <mxCell id="VfczCMwQgirAFWGqFJcv-303" value="" style="rounded=0;whiteSpace=wrap;html=1;" vertex="1" parent="1">
          <mxGeometry x="-887" y="70" width="30" height="30" as="geometry" />
        </mxCell>
        <mxCell id="VfczCMwQgirAFWGqFJcv-304" value="" style="rounded=0;whiteSpace=wrap;html=1;" vertex="1" parent="1">
          <mxGeometry x="-917" y="100" width="30" height="30" as="geometry" />
        </mxCell>
        <mxCell id="VfczCMwQgirAFWGqFJcv-305" value="" style="rounded=0;whiteSpace=wrap;html=1;" vertex="1" parent="1">
          <mxGeometry x="-887" y="100" width="30" height="30" as="geometry" />
        </mxCell>
        <mxCell id="VfczCMwQgirAFWGqFJcv-306" value="" style="rounded=0;whiteSpace=wrap;html=1;" vertex="1" parent="1">
          <mxGeometry x="-917" y="130" width="30" height="30" as="geometry" />
        </mxCell>
        <mxCell id="VfczCMwQgirAFWGqFJcv-307" value="" style="rounded=0;whiteSpace=wrap;html=1;" vertex="1" parent="1">
          <mxGeometry x="-887" y="130" width="30" height="30" as="geometry" />
        </mxCell>
        <mxCell id="VfczCMwQgirAFWGqFJcv-308" value="" style="rounded=0;whiteSpace=wrap;html=1;" vertex="1" parent="1">
          <mxGeometry x="-917" y="160" width="30" height="30" as="geometry" />
        </mxCell>
        <mxCell id="VfczCMwQgirAFWGqFJcv-309" value="" style="rounded=0;whiteSpace=wrap;html=1;" vertex="1" parent="1">
          <mxGeometry x="-887" y="160" width="30" height="30" as="geometry" />
        </mxCell>
        <mxCell id="VfczCMwQgirAFWGqFJcv-310" value="" style="rounded=0;whiteSpace=wrap;html=1;" vertex="1" parent="1">
          <mxGeometry x="-917" y="190" width="30" height="30" as="geometry" />
        </mxCell>
        <mxCell id="VfczCMwQgirAFWGqFJcv-311" value="" style="rounded=0;whiteSpace=wrap;html=1;" vertex="1" parent="1">
          <mxGeometry x="-887" y="190" width="30" height="30" as="geometry" />
        </mxCell>
        <mxCell id="VfczCMwQgirAFWGqFJcv-312" value="" style="rounded=0;whiteSpace=wrap;html=1;" vertex="1" parent="1">
          <mxGeometry x="-917" y="220" width="30" height="30" as="geometry" />
        </mxCell>
        <mxCell id="VfczCMwQgirAFWGqFJcv-313" value="" style="rounded=0;whiteSpace=wrap;html=1;" vertex="1" parent="1">
          <mxGeometry x="-887" y="220" width="30" height="30" as="geometry" />
        </mxCell>
        <mxCell id="VfczCMwQgirAFWGqFJcv-314" value="" style="rounded=0;whiteSpace=wrap;html=1;" vertex="1" parent="1">
          <mxGeometry x="-1147" y="80" width="30" height="30" as="geometry" />
        </mxCell>
        <mxCell id="VfczCMwQgirAFWGqFJcv-315" value="" style="rounded=0;whiteSpace=wrap;html=1;" vertex="1" parent="1">
          <mxGeometry x="-1117" y="80" width="30" height="30" as="geometry" />
        </mxCell>
        <mxCell id="VfczCMwQgirAFWGqFJcv-316" value="" style="rounded=0;whiteSpace=wrap;html=1;" vertex="1" parent="1">
          <mxGeometry x="-1087" y="80" width="30" height="30" as="geometry" />
        </mxCell>
        <mxCell id="VfczCMwQgirAFWGqFJcv-317" value="" style="rounded=0;whiteSpace=wrap;html=1;" vertex="1" parent="1">
          <mxGeometry x="-1057" y="80" width="30" height="30" as="geometry" />
        </mxCell>
        <mxCell id="VfczCMwQgirAFWGqFJcv-318" value="" style="rounded=0;whiteSpace=wrap;html=1;" vertex="1" parent="1">
          <mxGeometry x="-1027" y="80" width="30" height="30" as="geometry" />
        </mxCell>
        <mxCell id="VfczCMwQgirAFWGqFJcv-319" value="" style="rounded=0;whiteSpace=wrap;html=1;" vertex="1" parent="1">
          <mxGeometry x="-997" y="80" width="30" height="30" as="geometry" />
        </mxCell>
        <mxCell id="VfczCMwQgirAFWGqFJcv-320" value="" style="rounded=0;whiteSpace=wrap;html=1;" vertex="1" parent="1">
          <mxGeometry x="-967" y="80" width="30" height="30" as="geometry" />
        </mxCell>
        <mxCell id="VfczCMwQgirAFWGqFJcv-321" value="" style="rounded=0;whiteSpace=wrap;html=1;" vertex="1" parent="1">
          <mxGeometry x="-937" y="80" width="30" height="30" as="geometry" />
        </mxCell>
        <mxCell id="VfczCMwQgirAFWGqFJcv-322" value="" style="rounded=0;whiteSpace=wrap;html=1;" vertex="1" parent="1">
          <mxGeometry x="-1147" y="110" width="30" height="30" as="geometry" />
        </mxCell>
        <mxCell id="VfczCMwQgirAFWGqFJcv-323" value="" style="rounded=0;whiteSpace=wrap;html=1;" vertex="1" parent="1">
          <mxGeometry x="-1117" y="110" width="30" height="30" as="geometry" />
        </mxCell>
        <mxCell id="VfczCMwQgirAFWGqFJcv-324" value="" style="rounded=0;whiteSpace=wrap;html=1;" vertex="1" parent="1">
          <mxGeometry x="-1087" y="110" width="30" height="30" as="geometry" />
        </mxCell>
        <mxCell id="VfczCMwQgirAFWGqFJcv-325" value="" style="rounded=0;whiteSpace=wrap;html=1;" vertex="1" parent="1">
          <mxGeometry x="-1057" y="110" width="30" height="30" as="geometry" />
        </mxCell>
        <mxCell id="VfczCMwQgirAFWGqFJcv-326" value="" style="rounded=0;whiteSpace=wrap;html=1;" vertex="1" parent="1">
          <mxGeometry x="-1027" y="110" width="30" height="30" as="geometry" />
        </mxCell>
        <mxCell id="VfczCMwQgirAFWGqFJcv-327" value="" style="rounded=0;whiteSpace=wrap;html=1;" vertex="1" parent="1">
          <mxGeometry x="-997" y="110" width="30" height="30" as="geometry" />
        </mxCell>
        <mxCell id="VfczCMwQgirAFWGqFJcv-328" value="" style="rounded=0;whiteSpace=wrap;html=1;" vertex="1" parent="1">
          <mxGeometry x="-967" y="110" width="30" height="30" as="geometry" />
        </mxCell>
        <mxCell id="VfczCMwQgirAFWGqFJcv-329" value="" style="rounded=0;whiteSpace=wrap;html=1;" vertex="1" parent="1">
          <mxGeometry x="-937" y="110" width="30" height="30" as="geometry" />
        </mxCell>
        <mxCell id="VfczCMwQgirAFWGqFJcv-330" value="" style="rounded=0;whiteSpace=wrap;html=1;" vertex="1" parent="1">
          <mxGeometry x="-1147" y="140" width="30" height="30" as="geometry" />
        </mxCell>
        <mxCell id="VfczCMwQgirAFWGqFJcv-331" value="" style="rounded=0;whiteSpace=wrap;html=1;" vertex="1" parent="1">
          <mxGeometry x="-1117" y="140" width="30" height="30" as="geometry" />
        </mxCell>
        <mxCell id="VfczCMwQgirAFWGqFJcv-332" value="" style="rounded=0;whiteSpace=wrap;html=1;" vertex="1" parent="1">
          <mxGeometry x="-1087" y="140" width="30" height="30" as="geometry" />
        </mxCell>
        <mxCell id="VfczCMwQgirAFWGqFJcv-333" value="" style="rounded=0;whiteSpace=wrap;html=1;" vertex="1" parent="1">
          <mxGeometry x="-1057" y="140" width="30" height="30" as="geometry" />
        </mxCell>
        <mxCell id="VfczCMwQgirAFWGqFJcv-334" value="" style="rounded=0;whiteSpace=wrap;html=1;" vertex="1" parent="1">
          <mxGeometry x="-1027" y="140" width="30" height="30" as="geometry" />
        </mxCell>
        <mxCell id="VfczCMwQgirAFWGqFJcv-335" value="" style="rounded=0;whiteSpace=wrap;html=1;" vertex="1" parent="1">
          <mxGeometry x="-997" y="140" width="30" height="30" as="geometry" />
        </mxCell>
        <mxCell id="VfczCMwQgirAFWGqFJcv-336" value="" style="rounded=0;whiteSpace=wrap;html=1;" vertex="1" parent="1">
          <mxGeometry x="-967" y="140" width="30" height="30" as="geometry" />
        </mxCell>
        <mxCell id="VfczCMwQgirAFWGqFJcv-337" value="" style="rounded=0;whiteSpace=wrap;html=1;" vertex="1" parent="1">
          <mxGeometry x="-937" y="140" width="30" height="30" as="geometry" />
        </mxCell>
        <mxCell id="VfczCMwQgirAFWGqFJcv-338" value="" style="rounded=0;whiteSpace=wrap;html=1;" vertex="1" parent="1">
          <mxGeometry x="-1147" y="170" width="30" height="30" as="geometry" />
        </mxCell>
        <mxCell id="VfczCMwQgirAFWGqFJcv-339" value="" style="rounded=0;whiteSpace=wrap;html=1;" vertex="1" parent="1">
          <mxGeometry x="-1117" y="170" width="30" height="30" as="geometry" />
        </mxCell>
        <mxCell id="VfczCMwQgirAFWGqFJcv-340" value="" style="rounded=0;whiteSpace=wrap;html=1;" vertex="1" parent="1">
          <mxGeometry x="-1087" y="170" width="30" height="30" as="geometry" />
        </mxCell>
        <mxCell id="VfczCMwQgirAFWGqFJcv-341" value="" style="rounded=0;whiteSpace=wrap;html=1;" vertex="1" parent="1">
          <mxGeometry x="-1057" y="170" width="30" height="30" as="geometry" />
        </mxCell>
        <mxCell id="VfczCMwQgirAFWGqFJcv-342" value="" style="rounded=0;whiteSpace=wrap;html=1;" vertex="1" parent="1">
          <mxGeometry x="-1027" y="170" width="30" height="30" as="geometry" />
        </mxCell>
        <mxCell id="VfczCMwQgirAFWGqFJcv-343" value="" style="rounded=0;whiteSpace=wrap;html=1;" vertex="1" parent="1">
          <mxGeometry x="-997" y="170" width="30" height="30" as="geometry" />
        </mxCell>
        <mxCell id="VfczCMwQgirAFWGqFJcv-344" value="" style="rounded=0;whiteSpace=wrap;html=1;" vertex="1" parent="1">
          <mxGeometry x="-967" y="170" width="30" height="30" as="geometry" />
        </mxCell>
        <mxCell id="VfczCMwQgirAFWGqFJcv-345" value="" style="rounded=0;whiteSpace=wrap;html=1;" vertex="1" parent="1">
          <mxGeometry x="-937" y="170" width="30" height="30" as="geometry" />
        </mxCell>
        <mxCell id="VfczCMwQgirAFWGqFJcv-346" value="" style="rounded=0;whiteSpace=wrap;html=1;" vertex="1" parent="1">
          <mxGeometry x="-1147" y="200" width="30" height="30" as="geometry" />
        </mxCell>
        <mxCell id="VfczCMwQgirAFWGqFJcv-347" value="" style="rounded=0;whiteSpace=wrap;html=1;" vertex="1" parent="1">
          <mxGeometry x="-1117" y="200" width="30" height="30" as="geometry" />
        </mxCell>
        <mxCell id="VfczCMwQgirAFWGqFJcv-348" value="" style="rounded=0;whiteSpace=wrap;html=1;" vertex="1" parent="1">
          <mxGeometry x="-1087" y="200" width="30" height="30" as="geometry" />
        </mxCell>
        <mxCell id="VfczCMwQgirAFWGqFJcv-349" value="" style="rounded=0;whiteSpace=wrap;html=1;" vertex="1" parent="1">
          <mxGeometry x="-1057" y="200" width="30" height="30" as="geometry" />
        </mxCell>
        <mxCell id="VfczCMwQgirAFWGqFJcv-350" value="" style="rounded=0;whiteSpace=wrap;html=1;" vertex="1" parent="1">
          <mxGeometry x="-1027" y="200" width="30" height="30" as="geometry" />
        </mxCell>
        <mxCell id="VfczCMwQgirAFWGqFJcv-351" value="" style="rounded=0;whiteSpace=wrap;html=1;" vertex="1" parent="1">
          <mxGeometry x="-997" y="200" width="30" height="30" as="geometry" />
        </mxCell>
        <mxCell id="VfczCMwQgirAFWGqFJcv-352" value="" style="rounded=0;whiteSpace=wrap;html=1;" vertex="1" parent="1">
          <mxGeometry x="-967" y="200" width="30" height="30" as="geometry" />
        </mxCell>
        <mxCell id="VfczCMwQgirAFWGqFJcv-353" value="" style="rounded=0;whiteSpace=wrap;html=1;" vertex="1" parent="1">
          <mxGeometry x="-937" y="200" width="30" height="30" as="geometry" />
        </mxCell>
        <mxCell id="VfczCMwQgirAFWGqFJcv-354" value="" style="rounded=0;whiteSpace=wrap;html=1;" vertex="1" parent="1">
          <mxGeometry x="-1147" y="230" width="30" height="30" as="geometry" />
        </mxCell>
        <mxCell id="VfczCMwQgirAFWGqFJcv-355" value="" style="rounded=0;whiteSpace=wrap;html=1;" vertex="1" parent="1">
          <mxGeometry x="-1117" y="230" width="30" height="30" as="geometry" />
        </mxCell>
        <mxCell id="VfczCMwQgirAFWGqFJcv-356" value="" style="rounded=0;whiteSpace=wrap;html=1;" vertex="1" parent="1">
          <mxGeometry x="-1087" y="230" width="30" height="30" as="geometry" />
        </mxCell>
        <mxCell id="VfczCMwQgirAFWGqFJcv-357" value="" style="rounded=0;whiteSpace=wrap;html=1;" vertex="1" parent="1">
          <mxGeometry x="-1057" y="230" width="30" height="30" as="geometry" />
        </mxCell>
        <mxCell id="VfczCMwQgirAFWGqFJcv-358" value="" style="rounded=0;whiteSpace=wrap;html=1;" vertex="1" parent="1">
          <mxGeometry x="-1027" y="230" width="30" height="30" as="geometry" />
        </mxCell>
        <mxCell id="VfczCMwQgirAFWGqFJcv-359" value="" style="rounded=0;whiteSpace=wrap;html=1;" vertex="1" parent="1">
          <mxGeometry x="-997" y="230" width="30" height="30" as="geometry" />
        </mxCell>
        <mxCell id="VfczCMwQgirAFWGqFJcv-360" value="" style="rounded=0;whiteSpace=wrap;html=1;" vertex="1" parent="1">
          <mxGeometry x="-967" y="230" width="30" height="30" as="geometry" />
        </mxCell>
        <mxCell id="VfczCMwQgirAFWGqFJcv-361" value="" style="rounded=0;whiteSpace=wrap;html=1;" vertex="1" parent="1">
          <mxGeometry x="-937" y="230" width="30" height="30" as="geometry" />
        </mxCell>
        <mxCell id="VfczCMwQgirAFWGqFJcv-362" value="" style="rounded=0;whiteSpace=wrap;html=1;" vertex="1" parent="1">
          <mxGeometry x="-907" y="80" width="30" height="30" as="geometry" />
        </mxCell>
        <mxCell id="VfczCMwQgirAFWGqFJcv-363" value="" style="rounded=0;whiteSpace=wrap;html=1;" vertex="1" parent="1">
          <mxGeometry x="-877" y="80" width="30" height="30" as="geometry" />
        </mxCell>
        <mxCell id="VfczCMwQgirAFWGqFJcv-364" value="" style="rounded=0;whiteSpace=wrap;html=1;" vertex="1" parent="1">
          <mxGeometry x="-907" y="110" width="30" height="30" as="geometry" />
        </mxCell>
        <mxCell id="VfczCMwQgirAFWGqFJcv-365" value="" style="rounded=0;whiteSpace=wrap;html=1;" vertex="1" parent="1">
          <mxGeometry x="-877" y="110" width="30" height="30" as="geometry" />
        </mxCell>
        <mxCell id="VfczCMwQgirAFWGqFJcv-366" value="" style="rounded=0;whiteSpace=wrap;html=1;" vertex="1" parent="1">
          <mxGeometry x="-907" y="140" width="30" height="30" as="geometry" />
        </mxCell>
        <mxCell id="VfczCMwQgirAFWGqFJcv-367" value="" style="rounded=0;whiteSpace=wrap;html=1;" vertex="1" parent="1">
          <mxGeometry x="-877" y="140" width="30" height="30" as="geometry" />
        </mxCell>
        <mxCell id="VfczCMwQgirAFWGqFJcv-368" value="" style="rounded=0;whiteSpace=wrap;html=1;" vertex="1" parent="1">
          <mxGeometry x="-907" y="170" width="30" height="30" as="geometry" />
        </mxCell>
        <mxCell id="VfczCMwQgirAFWGqFJcv-369" value="" style="rounded=0;whiteSpace=wrap;html=1;" vertex="1" parent="1">
          <mxGeometry x="-877" y="170" width="30" height="30" as="geometry" />
        </mxCell>
        <mxCell id="VfczCMwQgirAFWGqFJcv-370" value="" style="rounded=0;whiteSpace=wrap;html=1;" vertex="1" parent="1">
          <mxGeometry x="-907" y="200" width="30" height="30" as="geometry" />
        </mxCell>
        <mxCell id="VfczCMwQgirAFWGqFJcv-371" value="" style="rounded=0;whiteSpace=wrap;html=1;" vertex="1" parent="1">
          <mxGeometry x="-877" y="200" width="30" height="30" as="geometry" />
        </mxCell>
        <mxCell id="VfczCMwQgirAFWGqFJcv-372" value="" style="rounded=0;whiteSpace=wrap;html=1;" vertex="1" parent="1">
          <mxGeometry x="-907" y="230" width="30" height="30" as="geometry" />
        </mxCell>
        <mxCell id="VfczCMwQgirAFWGqFJcv-373" value="" style="rounded=0;whiteSpace=wrap;html=1;" vertex="1" parent="1">
          <mxGeometry x="-877" y="230" width="30" height="30" as="geometry" />
        </mxCell>
        <mxCell id="VfczCMwQgirAFWGqFJcv-374" value="" style="rounded=0;whiteSpace=wrap;html=1;" vertex="1" parent="1">
          <mxGeometry x="-1137" y="90" width="30" height="30" as="geometry" />
        </mxCell>
        <mxCell id="VfczCMwQgirAFWGqFJcv-375" value="" style="rounded=0;whiteSpace=wrap;html=1;" vertex="1" parent="1">
          <mxGeometry x="-1107" y="90" width="30" height="30" as="geometry" />
        </mxCell>
        <mxCell id="VfczCMwQgirAFWGqFJcv-376" value="" style="rounded=0;whiteSpace=wrap;html=1;" vertex="1" parent="1">
          <mxGeometry x="-1077" y="90" width="30" height="30" as="geometry" />
        </mxCell>
        <mxCell id="VfczCMwQgirAFWGqFJcv-377" value="" style="rounded=0;whiteSpace=wrap;html=1;" vertex="1" parent="1">
          <mxGeometry x="-1047" y="90" width="30" height="30" as="geometry" />
        </mxCell>
        <mxCell id="VfczCMwQgirAFWGqFJcv-378" value="" style="rounded=0;whiteSpace=wrap;html=1;" vertex="1" parent="1">
          <mxGeometry x="-1017" y="90" width="30" height="30" as="geometry" />
        </mxCell>
        <mxCell id="VfczCMwQgirAFWGqFJcv-379" value="" style="rounded=0;whiteSpace=wrap;html=1;" vertex="1" parent="1">
          <mxGeometry x="-987" y="90" width="30" height="30" as="geometry" />
        </mxCell>
        <mxCell id="VfczCMwQgirAFWGqFJcv-380" value="" style="rounded=0;whiteSpace=wrap;html=1;" vertex="1" parent="1">
          <mxGeometry x="-957" y="90" width="30" height="30" as="geometry" />
        </mxCell>
        <mxCell id="VfczCMwQgirAFWGqFJcv-381" value="" style="rounded=0;whiteSpace=wrap;html=1;" vertex="1" parent="1">
          <mxGeometry x="-927" y="90" width="30" height="30" as="geometry" />
        </mxCell>
        <mxCell id="VfczCMwQgirAFWGqFJcv-382" value="" style="rounded=0;whiteSpace=wrap;html=1;" vertex="1" parent="1">
          <mxGeometry x="-1137" y="120" width="30" height="30" as="geometry" />
        </mxCell>
        <mxCell id="VfczCMwQgirAFWGqFJcv-383" value="" style="rounded=0;whiteSpace=wrap;html=1;" vertex="1" parent="1">
          <mxGeometry x="-1107" y="120" width="30" height="30" as="geometry" />
        </mxCell>
        <mxCell id="VfczCMwQgirAFWGqFJcv-384" value="" style="rounded=0;whiteSpace=wrap;html=1;" vertex="1" parent="1">
          <mxGeometry x="-1077" y="120" width="30" height="30" as="geometry" />
        </mxCell>
        <mxCell id="VfczCMwQgirAFWGqFJcv-385" value="" style="rounded=0;whiteSpace=wrap;html=1;" vertex="1" parent="1">
          <mxGeometry x="-1047" y="120" width="30" height="30" as="geometry" />
        </mxCell>
        <mxCell id="VfczCMwQgirAFWGqFJcv-386" value="" style="rounded=0;whiteSpace=wrap;html=1;" vertex="1" parent="1">
          <mxGeometry x="-1017" y="120" width="30" height="30" as="geometry" />
        </mxCell>
        <mxCell id="VfczCMwQgirAFWGqFJcv-387" value="" style="rounded=0;whiteSpace=wrap;html=1;" vertex="1" parent="1">
          <mxGeometry x="-987" y="120" width="30" height="30" as="geometry" />
        </mxCell>
        <mxCell id="VfczCMwQgirAFWGqFJcv-388" value="" style="rounded=0;whiteSpace=wrap;html=1;" vertex="1" parent="1">
          <mxGeometry x="-957" y="120" width="30" height="30" as="geometry" />
        </mxCell>
        <mxCell id="VfczCMwQgirAFWGqFJcv-389" value="" style="rounded=0;whiteSpace=wrap;html=1;" vertex="1" parent="1">
          <mxGeometry x="-927" y="120" width="30" height="30" as="geometry" />
        </mxCell>
        <mxCell id="VfczCMwQgirAFWGqFJcv-390" value="" style="rounded=0;whiteSpace=wrap;html=1;" vertex="1" parent="1">
          <mxGeometry x="-1137" y="150" width="30" height="30" as="geometry" />
        </mxCell>
        <mxCell id="VfczCMwQgirAFWGqFJcv-391" value="" style="rounded=0;whiteSpace=wrap;html=1;" vertex="1" parent="1">
          <mxGeometry x="-1107" y="150" width="30" height="30" as="geometry" />
        </mxCell>
        <mxCell id="VfczCMwQgirAFWGqFJcv-392" value="" style="rounded=0;whiteSpace=wrap;html=1;" vertex="1" parent="1">
          <mxGeometry x="-1077" y="150" width="30" height="30" as="geometry" />
        </mxCell>
        <mxCell id="VfczCMwQgirAFWGqFJcv-393" value="" style="rounded=0;whiteSpace=wrap;html=1;" vertex="1" parent="1">
          <mxGeometry x="-1047" y="150" width="30" height="30" as="geometry" />
        </mxCell>
        <mxCell id="VfczCMwQgirAFWGqFJcv-394" value="" style="rounded=0;whiteSpace=wrap;html=1;" vertex="1" parent="1">
          <mxGeometry x="-1017" y="150" width="30" height="30" as="geometry" />
        </mxCell>
        <mxCell id="VfczCMwQgirAFWGqFJcv-395" value="" style="rounded=0;whiteSpace=wrap;html=1;" vertex="1" parent="1">
          <mxGeometry x="-987" y="150" width="30" height="30" as="geometry" />
        </mxCell>
        <mxCell id="VfczCMwQgirAFWGqFJcv-396" value="" style="rounded=0;whiteSpace=wrap;html=1;" vertex="1" parent="1">
          <mxGeometry x="-957" y="150" width="30" height="30" as="geometry" />
        </mxCell>
        <mxCell id="VfczCMwQgirAFWGqFJcv-397" value="" style="rounded=0;whiteSpace=wrap;html=1;" vertex="1" parent="1">
          <mxGeometry x="-927" y="150" width="30" height="30" as="geometry" />
        </mxCell>
        <mxCell id="VfczCMwQgirAFWGqFJcv-398" value="" style="rounded=0;whiteSpace=wrap;html=1;" vertex="1" parent="1">
          <mxGeometry x="-1137" y="180" width="30" height="30" as="geometry" />
        </mxCell>
        <mxCell id="VfczCMwQgirAFWGqFJcv-399" value="" style="rounded=0;whiteSpace=wrap;html=1;" vertex="1" parent="1">
          <mxGeometry x="-1107" y="180" width="30" height="30" as="geometry" />
        </mxCell>
        <mxCell id="VfczCMwQgirAFWGqFJcv-400" value="" style="rounded=0;whiteSpace=wrap;html=1;" vertex="1" parent="1">
          <mxGeometry x="-1077" y="180" width="30" height="30" as="geometry" />
        </mxCell>
        <mxCell id="VfczCMwQgirAFWGqFJcv-401" value="" style="rounded=0;whiteSpace=wrap;html=1;" vertex="1" parent="1">
          <mxGeometry x="-1047" y="180" width="30" height="30" as="geometry" />
        </mxCell>
        <mxCell id="VfczCMwQgirAFWGqFJcv-402" value="" style="rounded=0;whiteSpace=wrap;html=1;" vertex="1" parent="1">
          <mxGeometry x="-1017" y="180" width="30" height="30" as="geometry" />
        </mxCell>
        <mxCell id="VfczCMwQgirAFWGqFJcv-403" value="" style="rounded=0;whiteSpace=wrap;html=1;" vertex="1" parent="1">
          <mxGeometry x="-987" y="180" width="30" height="30" as="geometry" />
        </mxCell>
        <mxCell id="VfczCMwQgirAFWGqFJcv-404" value="" style="rounded=0;whiteSpace=wrap;html=1;" vertex="1" parent="1">
          <mxGeometry x="-957" y="180" width="30" height="30" as="geometry" />
        </mxCell>
        <mxCell id="VfczCMwQgirAFWGqFJcv-405" value="" style="rounded=0;whiteSpace=wrap;html=1;" vertex="1" parent="1">
          <mxGeometry x="-927" y="180" width="30" height="30" as="geometry" />
        </mxCell>
        <mxCell id="VfczCMwQgirAFWGqFJcv-406" value="" style="rounded=0;whiteSpace=wrap;html=1;" vertex="1" parent="1">
          <mxGeometry x="-1137" y="210" width="30" height="30" as="geometry" />
        </mxCell>
        <mxCell id="VfczCMwQgirAFWGqFJcv-407" value="" style="rounded=0;whiteSpace=wrap;html=1;" vertex="1" parent="1">
          <mxGeometry x="-1107" y="210" width="30" height="30" as="geometry" />
        </mxCell>
        <mxCell id="VfczCMwQgirAFWGqFJcv-408" value="" style="rounded=0;whiteSpace=wrap;html=1;" vertex="1" parent="1">
          <mxGeometry x="-1077" y="210" width="30" height="30" as="geometry" />
        </mxCell>
        <mxCell id="VfczCMwQgirAFWGqFJcv-409" value="" style="rounded=0;whiteSpace=wrap;html=1;" vertex="1" parent="1">
          <mxGeometry x="-1047" y="210" width="30" height="30" as="geometry" />
        </mxCell>
        <mxCell id="VfczCMwQgirAFWGqFJcv-410" value="" style="rounded=0;whiteSpace=wrap;html=1;" vertex="1" parent="1">
          <mxGeometry x="-1017" y="210" width="30" height="30" as="geometry" />
        </mxCell>
        <mxCell id="VfczCMwQgirAFWGqFJcv-411" value="" style="rounded=0;whiteSpace=wrap;html=1;" vertex="1" parent="1">
          <mxGeometry x="-987" y="210" width="30" height="30" as="geometry" />
        </mxCell>
        <mxCell id="VfczCMwQgirAFWGqFJcv-412" value="" style="rounded=0;whiteSpace=wrap;html=1;" vertex="1" parent="1">
          <mxGeometry x="-957" y="210" width="30" height="30" as="geometry" />
        </mxCell>
        <mxCell id="VfczCMwQgirAFWGqFJcv-413" value="" style="rounded=0;whiteSpace=wrap;html=1;" vertex="1" parent="1">
          <mxGeometry x="-927" y="210" width="30" height="30" as="geometry" />
        </mxCell>
        <mxCell id="VfczCMwQgirAFWGqFJcv-414" value="" style="rounded=0;whiteSpace=wrap;html=1;" vertex="1" parent="1">
          <mxGeometry x="-1137" y="240" width="30" height="30" as="geometry" />
        </mxCell>
        <mxCell id="VfczCMwQgirAFWGqFJcv-415" value="" style="rounded=0;whiteSpace=wrap;html=1;" vertex="1" parent="1">
          <mxGeometry x="-1107" y="240" width="30" height="30" as="geometry" />
        </mxCell>
        <mxCell id="VfczCMwQgirAFWGqFJcv-416" value="" style="rounded=0;whiteSpace=wrap;html=1;" vertex="1" parent="1">
          <mxGeometry x="-1077" y="240" width="30" height="30" as="geometry" />
        </mxCell>
        <mxCell id="VfczCMwQgirAFWGqFJcv-417" value="" style="rounded=0;whiteSpace=wrap;html=1;" vertex="1" parent="1">
          <mxGeometry x="-1047" y="240" width="30" height="30" as="geometry" />
        </mxCell>
        <mxCell id="VfczCMwQgirAFWGqFJcv-418" value="" style="rounded=0;whiteSpace=wrap;html=1;" vertex="1" parent="1">
          <mxGeometry x="-1017" y="240" width="30" height="30" as="geometry" />
        </mxCell>
        <mxCell id="VfczCMwQgirAFWGqFJcv-419" value="" style="rounded=0;whiteSpace=wrap;html=1;" vertex="1" parent="1">
          <mxGeometry x="-987" y="240" width="30" height="30" as="geometry" />
        </mxCell>
        <mxCell id="VfczCMwQgirAFWGqFJcv-420" value="" style="rounded=0;whiteSpace=wrap;html=1;" vertex="1" parent="1">
          <mxGeometry x="-957" y="240" width="30" height="30" as="geometry" />
        </mxCell>
        <mxCell id="VfczCMwQgirAFWGqFJcv-421" value="" style="rounded=0;whiteSpace=wrap;html=1;" vertex="1" parent="1">
          <mxGeometry x="-927" y="240" width="30" height="30" as="geometry" />
        </mxCell>
        <mxCell id="VfczCMwQgirAFWGqFJcv-422" value="" style="rounded=0;whiteSpace=wrap;html=1;" vertex="1" parent="1">
          <mxGeometry x="-897" y="90" width="30" height="30" as="geometry" />
        </mxCell>
        <mxCell id="VfczCMwQgirAFWGqFJcv-423" value="" style="rounded=0;whiteSpace=wrap;html=1;" vertex="1" parent="1">
          <mxGeometry x="-867" y="90" width="30" height="30" as="geometry" />
        </mxCell>
        <mxCell id="VfczCMwQgirAFWGqFJcv-424" value="" style="rounded=0;whiteSpace=wrap;html=1;" vertex="1" parent="1">
          <mxGeometry x="-897" y="120" width="30" height="30" as="geometry" />
        </mxCell>
        <mxCell id="VfczCMwQgirAFWGqFJcv-425" value="" style="rounded=0;whiteSpace=wrap;html=1;" vertex="1" parent="1">
          <mxGeometry x="-867" y="120" width="30" height="30" as="geometry" />
        </mxCell>
        <mxCell id="VfczCMwQgirAFWGqFJcv-426" value="" style="rounded=0;whiteSpace=wrap;html=1;" vertex="1" parent="1">
          <mxGeometry x="-897" y="150" width="30" height="30" as="geometry" />
        </mxCell>
        <mxCell id="VfczCMwQgirAFWGqFJcv-427" value="" style="rounded=0;whiteSpace=wrap;html=1;" vertex="1" parent="1">
          <mxGeometry x="-867" y="150" width="30" height="30" as="geometry" />
        </mxCell>
        <mxCell id="VfczCMwQgirAFWGqFJcv-428" value="" style="rounded=0;whiteSpace=wrap;html=1;" vertex="1" parent="1">
          <mxGeometry x="-897" y="180" width="30" height="30" as="geometry" />
        </mxCell>
        <mxCell id="VfczCMwQgirAFWGqFJcv-429" value="" style="rounded=0;whiteSpace=wrap;html=1;" vertex="1" parent="1">
          <mxGeometry x="-867" y="180" width="30" height="30" as="geometry" />
        </mxCell>
        <mxCell id="VfczCMwQgirAFWGqFJcv-430" value="" style="rounded=0;whiteSpace=wrap;html=1;" vertex="1" parent="1">
          <mxGeometry x="-897" y="210" width="30" height="30" as="geometry" />
        </mxCell>
        <mxCell id="VfczCMwQgirAFWGqFJcv-431" value="" style="rounded=0;whiteSpace=wrap;html=1;" vertex="1" parent="1">
          <mxGeometry x="-867" y="210" width="30" height="30" as="geometry" />
        </mxCell>
        <mxCell id="VfczCMwQgirAFWGqFJcv-432" value="" style="rounded=0;whiteSpace=wrap;html=1;" vertex="1" parent="1">
          <mxGeometry x="-897" y="240" width="30" height="30" as="geometry" />
        </mxCell>
        <mxCell id="VfczCMwQgirAFWGqFJcv-433" value="" style="rounded=0;whiteSpace=wrap;html=1;" vertex="1" parent="1">
          <mxGeometry x="-867" y="240" width="30" height="30" as="geometry" />
        </mxCell>
        <mxCell id="VfczCMwQgirAFWGqFJcv-434" value="" style="rounded=0;whiteSpace=wrap;html=1;" vertex="1" parent="1">
          <mxGeometry x="-1127" y="100" width="30" height="30" as="geometry" />
        </mxCell>
        <mxCell id="VfczCMwQgirAFWGqFJcv-435" value="" style="rounded=0;whiteSpace=wrap;html=1;" vertex="1" parent="1">
          <mxGeometry x="-1097" y="100" width="30" height="30" as="geometry" />
        </mxCell>
        <mxCell id="VfczCMwQgirAFWGqFJcv-436" value="" style="rounded=0;whiteSpace=wrap;html=1;" vertex="1" parent="1">
          <mxGeometry x="-1067" y="100" width="30" height="30" as="geometry" />
        </mxCell>
        <mxCell id="VfczCMwQgirAFWGqFJcv-437" value="" style="rounded=0;whiteSpace=wrap;html=1;" vertex="1" parent="1">
          <mxGeometry x="-1037" y="100" width="30" height="30" as="geometry" />
        </mxCell>
        <mxCell id="VfczCMwQgirAFWGqFJcv-438" value="" style="rounded=0;whiteSpace=wrap;html=1;" vertex="1" parent="1">
          <mxGeometry x="-1007" y="100" width="30" height="30" as="geometry" />
        </mxCell>
        <mxCell id="VfczCMwQgirAFWGqFJcv-439" value="" style="rounded=0;whiteSpace=wrap;html=1;" vertex="1" parent="1">
          <mxGeometry x="-977" y="100" width="30" height="30" as="geometry" />
        </mxCell>
        <mxCell id="VfczCMwQgirAFWGqFJcv-440" value="" style="rounded=0;whiteSpace=wrap;html=1;" vertex="1" parent="1">
          <mxGeometry x="-947" y="100" width="30" height="30" as="geometry" />
        </mxCell>
        <mxCell id="VfczCMwQgirAFWGqFJcv-441" value="" style="rounded=0;whiteSpace=wrap;html=1;" vertex="1" parent="1">
          <mxGeometry x="-917" y="100" width="30" height="30" as="geometry" />
        </mxCell>
        <mxCell id="VfczCMwQgirAFWGqFJcv-442" value="" style="rounded=0;whiteSpace=wrap;html=1;" vertex="1" parent="1">
          <mxGeometry x="-1127" y="130" width="30" height="30" as="geometry" />
        </mxCell>
        <mxCell id="VfczCMwQgirAFWGqFJcv-443" value="" style="rounded=0;whiteSpace=wrap;html=1;" vertex="1" parent="1">
          <mxGeometry x="-1097" y="130" width="30" height="30" as="geometry" />
        </mxCell>
        <mxCell id="VfczCMwQgirAFWGqFJcv-444" value="" style="rounded=0;whiteSpace=wrap;html=1;" vertex="1" parent="1">
          <mxGeometry x="-1067" y="130" width="30" height="30" as="geometry" />
        </mxCell>
        <mxCell id="VfczCMwQgirAFWGqFJcv-445" value="" style="rounded=0;whiteSpace=wrap;html=1;" vertex="1" parent="1">
          <mxGeometry x="-1037" y="130" width="30" height="30" as="geometry" />
        </mxCell>
        <mxCell id="VfczCMwQgirAFWGqFJcv-446" value="" style="rounded=0;whiteSpace=wrap;html=1;" vertex="1" parent="1">
          <mxGeometry x="-1007" y="130" width="30" height="30" as="geometry" />
        </mxCell>
        <mxCell id="VfczCMwQgirAFWGqFJcv-447" value="" style="rounded=0;whiteSpace=wrap;html=1;" vertex="1" parent="1">
          <mxGeometry x="-977" y="130" width="30" height="30" as="geometry" />
        </mxCell>
        <mxCell id="VfczCMwQgirAFWGqFJcv-448" value="" style="rounded=0;whiteSpace=wrap;html=1;" vertex="1" parent="1">
          <mxGeometry x="-947" y="130" width="30" height="30" as="geometry" />
        </mxCell>
        <mxCell id="VfczCMwQgirAFWGqFJcv-449" value="" style="rounded=0;whiteSpace=wrap;html=1;" vertex="1" parent="1">
          <mxGeometry x="-917" y="130" width="30" height="30" as="geometry" />
        </mxCell>
        <mxCell id="VfczCMwQgirAFWGqFJcv-450" value="" style="rounded=0;whiteSpace=wrap;html=1;" vertex="1" parent="1">
          <mxGeometry x="-1127" y="160" width="30" height="30" as="geometry" />
        </mxCell>
        <mxCell id="VfczCMwQgirAFWGqFJcv-451" value="" style="rounded=0;whiteSpace=wrap;html=1;" vertex="1" parent="1">
          <mxGeometry x="-1097" y="160" width="30" height="30" as="geometry" />
        </mxCell>
        <mxCell id="VfczCMwQgirAFWGqFJcv-452" value="" style="rounded=0;whiteSpace=wrap;html=1;" vertex="1" parent="1">
          <mxGeometry x="-1067" y="160" width="30" height="30" as="geometry" />
        </mxCell>
        <mxCell id="VfczCMwQgirAFWGqFJcv-453" value="" style="rounded=0;whiteSpace=wrap;html=1;" vertex="1" parent="1">
          <mxGeometry x="-1037" y="160" width="30" height="30" as="geometry" />
        </mxCell>
        <mxCell id="VfczCMwQgirAFWGqFJcv-454" value="" style="rounded=0;whiteSpace=wrap;html=1;" vertex="1" parent="1">
          <mxGeometry x="-1007" y="160" width="30" height="30" as="geometry" />
        </mxCell>
        <mxCell id="VfczCMwQgirAFWGqFJcv-455" value="" style="rounded=0;whiteSpace=wrap;html=1;" vertex="1" parent="1">
          <mxGeometry x="-977" y="160" width="30" height="30" as="geometry" />
        </mxCell>
        <mxCell id="VfczCMwQgirAFWGqFJcv-456" value="" style="rounded=0;whiteSpace=wrap;html=1;" vertex="1" parent="1">
          <mxGeometry x="-947" y="160" width="30" height="30" as="geometry" />
        </mxCell>
        <mxCell id="VfczCMwQgirAFWGqFJcv-457" value="" style="rounded=0;whiteSpace=wrap;html=1;" vertex="1" parent="1">
          <mxGeometry x="-917" y="160" width="30" height="30" as="geometry" />
        </mxCell>
        <mxCell id="VfczCMwQgirAFWGqFJcv-458" value="" style="rounded=0;whiteSpace=wrap;html=1;" vertex="1" parent="1">
          <mxGeometry x="-1127" y="190" width="30" height="30" as="geometry" />
        </mxCell>
        <mxCell id="VfczCMwQgirAFWGqFJcv-459" value="" style="rounded=0;whiteSpace=wrap;html=1;" vertex="1" parent="1">
          <mxGeometry x="-1097" y="190" width="30" height="30" as="geometry" />
        </mxCell>
        <mxCell id="VfczCMwQgirAFWGqFJcv-460" value="" style="rounded=0;whiteSpace=wrap;html=1;" vertex="1" parent="1">
          <mxGeometry x="-1067" y="190" width="30" height="30" as="geometry" />
        </mxCell>
        <mxCell id="VfczCMwQgirAFWGqFJcv-461" value="" style="rounded=0;whiteSpace=wrap;html=1;" vertex="1" parent="1">
          <mxGeometry x="-1037" y="190" width="30" height="30" as="geometry" />
        </mxCell>
        <mxCell id="VfczCMwQgirAFWGqFJcv-462" value="" style="rounded=0;whiteSpace=wrap;html=1;" vertex="1" parent="1">
          <mxGeometry x="-1007" y="190" width="30" height="30" as="geometry" />
        </mxCell>
        <mxCell id="VfczCMwQgirAFWGqFJcv-463" value="" style="rounded=0;whiteSpace=wrap;html=1;" vertex="1" parent="1">
          <mxGeometry x="-977" y="190" width="30" height="30" as="geometry" />
        </mxCell>
        <mxCell id="VfczCMwQgirAFWGqFJcv-464" value="" style="rounded=0;whiteSpace=wrap;html=1;" vertex="1" parent="1">
          <mxGeometry x="-947" y="190" width="30" height="30" as="geometry" />
        </mxCell>
        <mxCell id="VfczCMwQgirAFWGqFJcv-465" value="" style="rounded=0;whiteSpace=wrap;html=1;" vertex="1" parent="1">
          <mxGeometry x="-917" y="190" width="30" height="30" as="geometry" />
        </mxCell>
        <mxCell id="VfczCMwQgirAFWGqFJcv-466" value="" style="rounded=0;whiteSpace=wrap;html=1;" vertex="1" parent="1">
          <mxGeometry x="-1127" y="220" width="30" height="30" as="geometry" />
        </mxCell>
        <mxCell id="VfczCMwQgirAFWGqFJcv-467" value="" style="rounded=0;whiteSpace=wrap;html=1;" vertex="1" parent="1">
          <mxGeometry x="-1097" y="220" width="30" height="30" as="geometry" />
        </mxCell>
        <mxCell id="VfczCMwQgirAFWGqFJcv-468" value="" style="rounded=0;whiteSpace=wrap;html=1;" vertex="1" parent="1">
          <mxGeometry x="-1067" y="220" width="30" height="30" as="geometry" />
        </mxCell>
        <mxCell id="VfczCMwQgirAFWGqFJcv-469" value="" style="rounded=0;whiteSpace=wrap;html=1;" vertex="1" parent="1">
          <mxGeometry x="-1037" y="220" width="30" height="30" as="geometry" />
        </mxCell>
        <mxCell id="VfczCMwQgirAFWGqFJcv-470" value="" style="rounded=0;whiteSpace=wrap;html=1;" vertex="1" parent="1">
          <mxGeometry x="-1007" y="220" width="30" height="30" as="geometry" />
        </mxCell>
        <mxCell id="VfczCMwQgirAFWGqFJcv-471" value="" style="rounded=0;whiteSpace=wrap;html=1;" vertex="1" parent="1">
          <mxGeometry x="-977" y="220" width="30" height="30" as="geometry" />
        </mxCell>
        <mxCell id="VfczCMwQgirAFWGqFJcv-472" value="" style="rounded=0;whiteSpace=wrap;html=1;" vertex="1" parent="1">
          <mxGeometry x="-947" y="220" width="30" height="30" as="geometry" />
        </mxCell>
        <mxCell id="VfczCMwQgirAFWGqFJcv-473" value="" style="rounded=0;whiteSpace=wrap;html=1;" vertex="1" parent="1">
          <mxGeometry x="-917" y="220" width="30" height="30" as="geometry" />
        </mxCell>
        <mxCell id="VfczCMwQgirAFWGqFJcv-474" value="" style="rounded=0;whiteSpace=wrap;html=1;" vertex="1" parent="1">
          <mxGeometry x="-1127" y="250" width="30" height="30" as="geometry" />
        </mxCell>
        <mxCell id="VfczCMwQgirAFWGqFJcv-475" value="" style="rounded=0;whiteSpace=wrap;html=1;" vertex="1" parent="1">
          <mxGeometry x="-1097" y="250" width="30" height="30" as="geometry" />
        </mxCell>
        <mxCell id="VfczCMwQgirAFWGqFJcv-476" value="" style="rounded=0;whiteSpace=wrap;html=1;" vertex="1" parent="1">
          <mxGeometry x="-1067" y="250" width="30" height="30" as="geometry" />
        </mxCell>
        <mxCell id="VfczCMwQgirAFWGqFJcv-477" value="" style="rounded=0;whiteSpace=wrap;html=1;" vertex="1" parent="1">
          <mxGeometry x="-1037" y="250" width="30" height="30" as="geometry" />
        </mxCell>
        <mxCell id="VfczCMwQgirAFWGqFJcv-478" value="" style="rounded=0;whiteSpace=wrap;html=1;" vertex="1" parent="1">
          <mxGeometry x="-1007" y="250" width="30" height="30" as="geometry" />
        </mxCell>
        <mxCell id="VfczCMwQgirAFWGqFJcv-479" value="" style="rounded=0;whiteSpace=wrap;html=1;" vertex="1" parent="1">
          <mxGeometry x="-977" y="250" width="30" height="30" as="geometry" />
        </mxCell>
        <mxCell id="VfczCMwQgirAFWGqFJcv-480" value="" style="rounded=0;whiteSpace=wrap;html=1;" vertex="1" parent="1">
          <mxGeometry x="-947" y="250" width="30" height="30" as="geometry" />
        </mxCell>
        <mxCell id="VfczCMwQgirAFWGqFJcv-481" value="" style="rounded=0;whiteSpace=wrap;html=1;" vertex="1" parent="1">
          <mxGeometry x="-917" y="250" width="30" height="30" as="geometry" />
        </mxCell>
        <mxCell id="VfczCMwQgirAFWGqFJcv-482" value="" style="rounded=0;whiteSpace=wrap;html=1;" vertex="1" parent="1">
          <mxGeometry x="-887" y="100" width="30" height="30" as="geometry" />
        </mxCell>
        <mxCell id="VfczCMwQgirAFWGqFJcv-483" value="" style="rounded=0;whiteSpace=wrap;html=1;" vertex="1" parent="1">
          <mxGeometry x="-857" y="100" width="30" height="30" as="geometry" />
        </mxCell>
        <mxCell id="VfczCMwQgirAFWGqFJcv-484" value="" style="rounded=0;whiteSpace=wrap;html=1;" vertex="1" parent="1">
          <mxGeometry x="-887" y="130" width="30" height="30" as="geometry" />
        </mxCell>
        <mxCell id="VfczCMwQgirAFWGqFJcv-485" value="" style="rounded=0;whiteSpace=wrap;html=1;" vertex="1" parent="1">
          <mxGeometry x="-857" y="130" width="30" height="30" as="geometry" />
        </mxCell>
        <mxCell id="VfczCMwQgirAFWGqFJcv-486" value="" style="rounded=0;whiteSpace=wrap;html=1;" vertex="1" parent="1">
          <mxGeometry x="-887" y="160" width="30" height="30" as="geometry" />
        </mxCell>
        <mxCell id="VfczCMwQgirAFWGqFJcv-570" style="edgeStyle=orthogonalEdgeStyle;rounded=0;orthogonalLoop=1;jettySize=auto;html=1;entryX=0;entryY=0.25;entryDx=0;entryDy=0;" edge="1" parent="1" source="VfczCMwQgirAFWGqFJcv-487" target="VfczCMwQgirAFWGqFJcv-504">
          <mxGeometry relative="1" as="geometry" />
        </mxCell>
        <mxCell id="VfczCMwQgirAFWGqFJcv-487" value="" style="rounded=0;whiteSpace=wrap;html=1;" vertex="1" parent="1">
          <mxGeometry x="-857" y="160" width="30" height="30" as="geometry" />
        </mxCell>
        <mxCell id="VfczCMwQgirAFWGqFJcv-488" value="" style="rounded=0;whiteSpace=wrap;html=1;" vertex="1" parent="1">
          <mxGeometry x="-887" y="190" width="30" height="30" as="geometry" />
        </mxCell>
        <mxCell id="VfczCMwQgirAFWGqFJcv-489" value="" style="rounded=0;whiteSpace=wrap;html=1;" vertex="1" parent="1">
          <mxGeometry x="-857" y="190" width="30" height="30" as="geometry" />
        </mxCell>
        <mxCell id="VfczCMwQgirAFWGqFJcv-490" value="" style="rounded=0;whiteSpace=wrap;html=1;" vertex="1" parent="1">
          <mxGeometry x="-887" y="220" width="30" height="30" as="geometry" />
        </mxCell>
        <mxCell id="VfczCMwQgirAFWGqFJcv-491" value="" style="rounded=0;whiteSpace=wrap;html=1;" vertex="1" parent="1">
          <mxGeometry x="-857" y="220" width="30" height="30" as="geometry" />
        </mxCell>
        <mxCell id="VfczCMwQgirAFWGqFJcv-492" value="" style="rounded=0;whiteSpace=wrap;html=1;" vertex="1" parent="1">
          <mxGeometry x="-887" y="250" width="30" height="30" as="geometry" />
        </mxCell>
        <mxCell id="VfczCMwQgirAFWGqFJcv-493" value="" style="rounded=0;whiteSpace=wrap;html=1;" vertex="1" parent="1">
          <mxGeometry x="-857" y="250" width="30" height="30" as="geometry" />
        </mxCell>
        <mxCell id="VfczCMwQgirAFWGqFJcv-495" value="One-hot encoding input" style="text;html=1;strokeColor=none;fillColor=none;align=center;verticalAlign=middle;whiteSpace=wrap;rounded=0;shadow=1;glass=0;sketch=1;fontSize=18;" vertex="1" parent="1">
          <mxGeometry x="-1440" y="297.5" width="200" height="30" as="geometry" />
        </mxCell>
        <mxCell id="VfczCMwQgirAFWGqFJcv-496" value="" style="whiteSpace=wrap;html=1;aspect=fixed;fillColor=#dae8fc;strokeColor=#6c8ebf;" vertex="1" parent="1">
          <mxGeometry x="-760" y="85" width="40" height="40" as="geometry" />
        </mxCell>
        <mxCell id="VfczCMwQgirAFWGqFJcv-497" value="" style="whiteSpace=wrap;html=1;aspect=fixed;fillColor=#dae8fc;strokeColor=#6c8ebf;" vertex="1" parent="1">
          <mxGeometry x="-720" y="85" width="40" height="40" as="geometry" />
        </mxCell>
        <mxCell id="VfczCMwQgirAFWGqFJcv-498" value="" style="whiteSpace=wrap;html=1;aspect=fixed;fillColor=#dae8fc;strokeColor=#6c8ebf;" vertex="1" parent="1">
          <mxGeometry x="-680" y="85" width="40" height="40" as="geometry" />
        </mxCell>
        <mxCell id="VfczCMwQgirAFWGqFJcv-499" value="" style="whiteSpace=wrap;html=1;aspect=fixed;fillColor=#dae8fc;strokeColor=#6c8ebf;" vertex="1" parent="1">
          <mxGeometry x="-640" y="85" width="40" height="40" as="geometry" />
        </mxCell>
        <mxCell id="VfczCMwQgirAFWGqFJcv-500" value="" style="whiteSpace=wrap;html=1;aspect=fixed;fillColor=#dae8fc;strokeColor=#6c8ebf;" vertex="1" parent="1">
          <mxGeometry x="-760" y="125" width="40" height="40" as="geometry" />
        </mxCell>
        <mxCell id="VfczCMwQgirAFWGqFJcv-501" value="" style="whiteSpace=wrap;html=1;aspect=fixed;fillColor=#dae8fc;strokeColor=#6c8ebf;" vertex="1" parent="1">
          <mxGeometry x="-720" y="125" width="40" height="40" as="geometry" />
        </mxCell>
        <mxCell id="VfczCMwQgirAFWGqFJcv-502" value="" style="whiteSpace=wrap;html=1;aspect=fixed;fillColor=#dae8fc;strokeColor=#6c8ebf;" vertex="1" parent="1">
          <mxGeometry x="-680" y="125" width="40" height="40" as="geometry" />
        </mxCell>
        <mxCell id="VfczCMwQgirAFWGqFJcv-503" value="" style="whiteSpace=wrap;html=1;aspect=fixed;fillColor=#dae8fc;strokeColor=#6c8ebf;" vertex="1" parent="1">
          <mxGeometry x="-640" y="125" width="40" height="40" as="geometry" />
        </mxCell>
        <mxCell id="VfczCMwQgirAFWGqFJcv-504" value="" style="whiteSpace=wrap;html=1;aspect=fixed;fillColor=#dae8fc;strokeColor=#6c8ebf;" vertex="1" parent="1">
          <mxGeometry x="-760" y="165" width="40" height="40" as="geometry" />
        </mxCell>
        <mxCell id="VfczCMwQgirAFWGqFJcv-505" value="" style="whiteSpace=wrap;html=1;aspect=fixed;fillColor=#dae8fc;strokeColor=#6c8ebf;" vertex="1" parent="1">
          <mxGeometry x="-720" y="165" width="40" height="40" as="geometry" />
        </mxCell>
        <mxCell id="VfczCMwQgirAFWGqFJcv-506" value="" style="whiteSpace=wrap;html=1;aspect=fixed;fillColor=#dae8fc;strokeColor=#6c8ebf;" vertex="1" parent="1">
          <mxGeometry x="-680" y="165" width="40" height="40" as="geometry" />
        </mxCell>
        <mxCell id="VfczCMwQgirAFWGqFJcv-507" value="" style="whiteSpace=wrap;html=1;aspect=fixed;fillColor=#dae8fc;strokeColor=#6c8ebf;" vertex="1" parent="1">
          <mxGeometry x="-640" y="165" width="40" height="40" as="geometry" />
        </mxCell>
        <mxCell id="VfczCMwQgirAFWGqFJcv-508" value="" style="whiteSpace=wrap;html=1;aspect=fixed;fillColor=#dae8fc;strokeColor=#6c8ebf;" vertex="1" parent="1">
          <mxGeometry x="-760" y="205" width="40" height="40" as="geometry" />
        </mxCell>
        <mxCell id="VfczCMwQgirAFWGqFJcv-509" value="" style="whiteSpace=wrap;html=1;aspect=fixed;fillColor=#dae8fc;strokeColor=#6c8ebf;" vertex="1" parent="1">
          <mxGeometry x="-720" y="205" width="40" height="40" as="geometry" />
        </mxCell>
        <mxCell id="VfczCMwQgirAFWGqFJcv-510" value="" style="whiteSpace=wrap;html=1;aspect=fixed;fillColor=#dae8fc;strokeColor=#6c8ebf;" vertex="1" parent="1">
          <mxGeometry x="-680" y="205" width="40" height="40" as="geometry" />
        </mxCell>
        <mxCell id="VfczCMwQgirAFWGqFJcv-511" value="" style="whiteSpace=wrap;html=1;aspect=fixed;fillColor=#dae8fc;strokeColor=#6c8ebf;" vertex="1" parent="1">
          <mxGeometry x="-640" y="205" width="40" height="40" as="geometry" />
        </mxCell>
        <mxCell id="VfczCMwQgirAFWGqFJcv-512" value="" style="whiteSpace=wrap;html=1;aspect=fixed;fillColor=#d5e8d4;strokeColor=#82b366;" vertex="1" parent="1">
          <mxGeometry x="-750" y="95" width="40" height="40" as="geometry" />
        </mxCell>
        <mxCell id="VfczCMwQgirAFWGqFJcv-513" value="" style="whiteSpace=wrap;html=1;aspect=fixed;fillColor=#d5e8d4;strokeColor=#82b366;" vertex="1" parent="1">
          <mxGeometry x="-710" y="95" width="40" height="40" as="geometry" />
        </mxCell>
        <mxCell id="VfczCMwQgirAFWGqFJcv-514" value="" style="whiteSpace=wrap;html=1;aspect=fixed;fillColor=#d5e8d4;strokeColor=#82b366;" vertex="1" parent="1">
          <mxGeometry x="-670" y="95" width="40" height="40" as="geometry" />
        </mxCell>
        <mxCell id="VfczCMwQgirAFWGqFJcv-515" value="" style="whiteSpace=wrap;html=1;aspect=fixed;fillColor=#d5e8d4;strokeColor=#82b366;" vertex="1" parent="1">
          <mxGeometry x="-630" y="95" width="40" height="40" as="geometry" />
        </mxCell>
        <mxCell id="VfczCMwQgirAFWGqFJcv-516" value="" style="whiteSpace=wrap;html=1;aspect=fixed;fillColor=#d5e8d4;strokeColor=#82b366;" vertex="1" parent="1">
          <mxGeometry x="-750" y="135" width="40" height="40" as="geometry" />
        </mxCell>
        <mxCell id="VfczCMwQgirAFWGqFJcv-517" value="" style="whiteSpace=wrap;html=1;aspect=fixed;fillColor=#d5e8d4;strokeColor=#82b366;" vertex="1" parent="1">
          <mxGeometry x="-710" y="135" width="40" height="40" as="geometry" />
        </mxCell>
        <mxCell id="VfczCMwQgirAFWGqFJcv-518" value="" style="whiteSpace=wrap;html=1;aspect=fixed;fillColor=#d5e8d4;strokeColor=#82b366;" vertex="1" parent="1">
          <mxGeometry x="-670" y="135" width="40" height="40" as="geometry" />
        </mxCell>
        <mxCell id="VfczCMwQgirAFWGqFJcv-519" value="" style="whiteSpace=wrap;html=1;aspect=fixed;fillColor=#d5e8d4;strokeColor=#82b366;" vertex="1" parent="1">
          <mxGeometry x="-630" y="135" width="40" height="40" as="geometry" />
        </mxCell>
        <mxCell id="VfczCMwQgirAFWGqFJcv-520" value="" style="whiteSpace=wrap;html=1;aspect=fixed;fillColor=#d5e8d4;strokeColor=#82b366;" vertex="1" parent="1">
          <mxGeometry x="-750" y="175" width="40" height="40" as="geometry" />
        </mxCell>
        <mxCell id="VfczCMwQgirAFWGqFJcv-521" value="" style="whiteSpace=wrap;html=1;aspect=fixed;fillColor=#d5e8d4;strokeColor=#82b366;" vertex="1" parent="1">
          <mxGeometry x="-710" y="175" width="40" height="40" as="geometry" />
        </mxCell>
        <mxCell id="VfczCMwQgirAFWGqFJcv-522" value="" style="whiteSpace=wrap;html=1;aspect=fixed;fillColor=#d5e8d4;strokeColor=#82b366;" vertex="1" parent="1">
          <mxGeometry x="-670" y="175" width="40" height="40" as="geometry" />
        </mxCell>
        <mxCell id="VfczCMwQgirAFWGqFJcv-523" value="" style="whiteSpace=wrap;html=1;aspect=fixed;fillColor=#d5e8d4;strokeColor=#82b366;" vertex="1" parent="1">
          <mxGeometry x="-630" y="175" width="40" height="40" as="geometry" />
        </mxCell>
        <mxCell id="VfczCMwQgirAFWGqFJcv-524" value="" style="whiteSpace=wrap;html=1;aspect=fixed;fillColor=#d5e8d4;strokeColor=#82b366;" vertex="1" parent="1">
          <mxGeometry x="-750" y="215" width="40" height="40" as="geometry" />
        </mxCell>
        <mxCell id="VfczCMwQgirAFWGqFJcv-525" value="" style="whiteSpace=wrap;html=1;aspect=fixed;fillColor=#d5e8d4;strokeColor=#82b366;" vertex="1" parent="1">
          <mxGeometry x="-710" y="215" width="40" height="40" as="geometry" />
        </mxCell>
        <mxCell id="VfczCMwQgirAFWGqFJcv-526" value="" style="whiteSpace=wrap;html=1;aspect=fixed;fillColor=#d5e8d4;strokeColor=#82b366;" vertex="1" parent="1">
          <mxGeometry x="-670" y="215" width="40" height="40" as="geometry" />
        </mxCell>
        <mxCell id="VfczCMwQgirAFWGqFJcv-527" value="" style="whiteSpace=wrap;html=1;aspect=fixed;fillColor=#d5e8d4;strokeColor=#82b366;" vertex="1" parent="1">
          <mxGeometry x="-630" y="215" width="40" height="40" as="geometry" />
        </mxCell>
        <mxCell id="VfczCMwQgirAFWGqFJcv-528" value="" style="whiteSpace=wrap;html=1;aspect=fixed;fillColor=#ffe6cc;strokeColor=#d79b00;" vertex="1" parent="1">
          <mxGeometry x="-740" y="105" width="40" height="40" as="geometry" />
        </mxCell>
        <mxCell id="VfczCMwQgirAFWGqFJcv-529" value="" style="whiteSpace=wrap;html=1;aspect=fixed;fillColor=#ffe6cc;strokeColor=#d79b00;" vertex="1" parent="1">
          <mxGeometry x="-700" y="105" width="40" height="40" as="geometry" />
        </mxCell>
        <mxCell id="VfczCMwQgirAFWGqFJcv-530" value="" style="whiteSpace=wrap;html=1;aspect=fixed;fillColor=#ffe6cc;strokeColor=#d79b00;" vertex="1" parent="1">
          <mxGeometry x="-660" y="105" width="40" height="40" as="geometry" />
        </mxCell>
        <mxCell id="VfczCMwQgirAFWGqFJcv-531" value="" style="whiteSpace=wrap;html=1;aspect=fixed;fillColor=#ffe6cc;strokeColor=#d79b00;" vertex="1" parent="1">
          <mxGeometry x="-620" y="105" width="40" height="40" as="geometry" />
        </mxCell>
        <mxCell id="VfczCMwQgirAFWGqFJcv-532" value="" style="whiteSpace=wrap;html=1;aspect=fixed;fillColor=#ffe6cc;strokeColor=#d79b00;" vertex="1" parent="1">
          <mxGeometry x="-740" y="145" width="40" height="40" as="geometry" />
        </mxCell>
        <mxCell id="VfczCMwQgirAFWGqFJcv-533" value="" style="whiteSpace=wrap;html=1;aspect=fixed;fillColor=#ffe6cc;strokeColor=#d79b00;" vertex="1" parent="1">
          <mxGeometry x="-700" y="145" width="40" height="40" as="geometry" />
        </mxCell>
        <mxCell id="VfczCMwQgirAFWGqFJcv-534" value="" style="whiteSpace=wrap;html=1;aspect=fixed;fillColor=#ffe6cc;strokeColor=#d79b00;" vertex="1" parent="1">
          <mxGeometry x="-660" y="145" width="40" height="40" as="geometry" />
        </mxCell>
        <mxCell id="VfczCMwQgirAFWGqFJcv-535" value="" style="whiteSpace=wrap;html=1;aspect=fixed;fillColor=#ffe6cc;strokeColor=#d79b00;" vertex="1" parent="1">
          <mxGeometry x="-620" y="145" width="40" height="40" as="geometry" />
        </mxCell>
        <mxCell id="VfczCMwQgirAFWGqFJcv-536" value="" style="whiteSpace=wrap;html=1;aspect=fixed;fillColor=#ffe6cc;strokeColor=#d79b00;" vertex="1" parent="1">
          <mxGeometry x="-740" y="185" width="40" height="40" as="geometry" />
        </mxCell>
        <mxCell id="VfczCMwQgirAFWGqFJcv-537" value="" style="whiteSpace=wrap;html=1;aspect=fixed;fillColor=#ffe6cc;strokeColor=#d79b00;" vertex="1" parent="1">
          <mxGeometry x="-700" y="185" width="40" height="40" as="geometry" />
        </mxCell>
        <mxCell id="VfczCMwQgirAFWGqFJcv-538" value="" style="whiteSpace=wrap;html=1;aspect=fixed;fillColor=#ffe6cc;strokeColor=#d79b00;" vertex="1" parent="1">
          <mxGeometry x="-660" y="185" width="40" height="40" as="geometry" />
        </mxCell>
        <mxCell id="VfczCMwQgirAFWGqFJcv-539" value="" style="whiteSpace=wrap;html=1;aspect=fixed;fillColor=#ffe6cc;strokeColor=#d79b00;" vertex="1" parent="1">
          <mxGeometry x="-620" y="185" width="40" height="40" as="geometry" />
        </mxCell>
        <mxCell id="VfczCMwQgirAFWGqFJcv-540" value="" style="whiteSpace=wrap;html=1;aspect=fixed;fillColor=#ffe6cc;strokeColor=#d79b00;" vertex="1" parent="1">
          <mxGeometry x="-740" y="225" width="40" height="40" as="geometry" />
        </mxCell>
        <mxCell id="VfczCMwQgirAFWGqFJcv-541" value="" style="whiteSpace=wrap;html=1;aspect=fixed;fillColor=#ffe6cc;strokeColor=#d79b00;" vertex="1" parent="1">
          <mxGeometry x="-700" y="225" width="40" height="40" as="geometry" />
        </mxCell>
        <mxCell id="VfczCMwQgirAFWGqFJcv-542" value="" style="whiteSpace=wrap;html=1;aspect=fixed;fillColor=#ffe6cc;strokeColor=#d79b00;" vertex="1" parent="1">
          <mxGeometry x="-660" y="225" width="40" height="40" as="geometry" />
        </mxCell>
        <mxCell id="VfczCMwQgirAFWGqFJcv-543" value="" style="whiteSpace=wrap;html=1;aspect=fixed;fillColor=#ffe6cc;strokeColor=#d79b00;" vertex="1" parent="1">
          <mxGeometry x="-620" y="225" width="40" height="40" as="geometry" />
        </mxCell>
        <mxCell id="VfczCMwQgirAFWGqFJcv-544" value="" style="whiteSpace=wrap;html=1;aspect=fixed;fillColor=#f8cecc;strokeColor=#b85450;" vertex="1" parent="1">
          <mxGeometry x="-730" y="115" width="40" height="40" as="geometry" />
        </mxCell>
        <mxCell id="VfczCMwQgirAFWGqFJcv-545" value="" style="whiteSpace=wrap;html=1;aspect=fixed;fillColor=#f8cecc;strokeColor=#b85450;" vertex="1" parent="1">
          <mxGeometry x="-690" y="115" width="40" height="40" as="geometry" />
        </mxCell>
        <mxCell id="VfczCMwQgirAFWGqFJcv-546" value="" style="whiteSpace=wrap;html=1;aspect=fixed;fillColor=#f8cecc;strokeColor=#b85450;" vertex="1" parent="1">
          <mxGeometry x="-650" y="115" width="40" height="40" as="geometry" />
        </mxCell>
        <mxCell id="VfczCMwQgirAFWGqFJcv-547" value="" style="whiteSpace=wrap;html=1;aspect=fixed;fillColor=#f8cecc;strokeColor=#b85450;" vertex="1" parent="1">
          <mxGeometry x="-610" y="115" width="40" height="40" as="geometry" />
        </mxCell>
        <mxCell id="VfczCMwQgirAFWGqFJcv-548" value="" style="whiteSpace=wrap;html=1;aspect=fixed;fillColor=#f8cecc;strokeColor=#b85450;" vertex="1" parent="1">
          <mxGeometry x="-730" y="155" width="40" height="40" as="geometry" />
        </mxCell>
        <mxCell id="VfczCMwQgirAFWGqFJcv-549" value="" style="whiteSpace=wrap;html=1;aspect=fixed;fillColor=#f8cecc;strokeColor=#b85450;" vertex="1" parent="1">
          <mxGeometry x="-690" y="155" width="40" height="40" as="geometry" />
        </mxCell>
        <mxCell id="VfczCMwQgirAFWGqFJcv-550" value="" style="whiteSpace=wrap;html=1;aspect=fixed;fillColor=#f8cecc;strokeColor=#b85450;" vertex="1" parent="1">
          <mxGeometry x="-650" y="155" width="40" height="40" as="geometry" />
        </mxCell>
        <mxCell id="VfczCMwQgirAFWGqFJcv-551" style="edgeStyle=orthogonalEdgeStyle;rounded=0;orthogonalLoop=1;jettySize=auto;html=1;entryX=0;entryY=0.5;entryDx=0;entryDy=0;fontSize=18;" edge="1" parent="1" source="VfczCMwQgirAFWGqFJcv-552" target="VfczCMwQgirAFWGqFJcv-564">
          <mxGeometry relative="1" as="geometry">
            <Array as="points">
              <mxPoint x="-550" y="195" />
              <mxPoint x="-550" y="195" />
            </Array>
          </mxGeometry>
        </mxCell>
        <mxCell id="VfczCMwQgirAFWGqFJcv-552" value="" style="whiteSpace=wrap;html=1;aspect=fixed;fillColor=#f8cecc;strokeColor=#b85450;" vertex="1" parent="1">
          <mxGeometry x="-610" y="155" width="40" height="40" as="geometry" />
        </mxCell>
        <mxCell id="VfczCMwQgirAFWGqFJcv-553" value="" style="whiteSpace=wrap;html=1;aspect=fixed;fillColor=#f8cecc;strokeColor=#b85450;" vertex="1" parent="1">
          <mxGeometry x="-730" y="195" width="40" height="40" as="geometry" />
        </mxCell>
        <mxCell id="VfczCMwQgirAFWGqFJcv-554" value="" style="whiteSpace=wrap;html=1;aspect=fixed;fillColor=#f8cecc;strokeColor=#b85450;" vertex="1" parent="1">
          <mxGeometry x="-690" y="195" width="40" height="40" as="geometry" />
        </mxCell>
        <mxCell id="VfczCMwQgirAFWGqFJcv-555" value="" style="whiteSpace=wrap;html=1;aspect=fixed;fillColor=#f8cecc;strokeColor=#b85450;" vertex="1" parent="1">
          <mxGeometry x="-650" y="195" width="40" height="40" as="geometry" />
        </mxCell>
        <mxCell id="VfczCMwQgirAFWGqFJcv-556" value="" style="whiteSpace=wrap;html=1;aspect=fixed;fillColor=#f8cecc;strokeColor=#b85450;" vertex="1" parent="1">
          <mxGeometry x="-610" y="195" width="40" height="40" as="geometry" />
        </mxCell>
        <mxCell id="VfczCMwQgirAFWGqFJcv-557" value="" style="whiteSpace=wrap;html=1;aspect=fixed;fillColor=#f8cecc;strokeColor=#b85450;" vertex="1" parent="1">
          <mxGeometry x="-730" y="235" width="40" height="40" as="geometry" />
        </mxCell>
        <mxCell id="VfczCMwQgirAFWGqFJcv-558" value="" style="whiteSpace=wrap;html=1;aspect=fixed;fillColor=#f8cecc;strokeColor=#b85450;" vertex="1" parent="1">
          <mxGeometry x="-690" y="235" width="40" height="40" as="geometry" />
        </mxCell>
        <mxCell id="VfczCMwQgirAFWGqFJcv-559" value="" style="whiteSpace=wrap;html=1;aspect=fixed;fillColor=#f8cecc;strokeColor=#b85450;" vertex="1" parent="1">
          <mxGeometry x="-650" y="235" width="40" height="40" as="geometry" />
        </mxCell>
        <mxCell id="VfczCMwQgirAFWGqFJcv-560" value="" style="whiteSpace=wrap;html=1;aspect=fixed;fillColor=#f8cecc;strokeColor=#b85450;" vertex="1" parent="1">
          <mxGeometry x="-610" y="235" width="40" height="40" as="geometry" />
        </mxCell>
        <mxCell id="VfczCMwQgirAFWGqFJcv-616" style="edgeStyle=orthogonalEdgeStyle;rounded=0;orthogonalLoop=1;jettySize=auto;html=1;entryX=0;entryY=0.5;entryDx=0;entryDy=0;" edge="1" parent="1" source="VfczCMwQgirAFWGqFJcv-561" target="VfczCMwQgirAFWGqFJcv-614">
          <mxGeometry relative="1" as="geometry">
            <Array as="points">
              <mxPoint x="-150" y="175" />
              <mxPoint x="-150" y="440" />
              <mxPoint x="-1460" y="440" />
              <mxPoint x="-1460" y="690" />
            </Array>
          </mxGeometry>
        </mxCell>
        <mxCell id="VfczCMwQgirAFWGqFJcv-561" value="" style="rounded=0;whiteSpace=wrap;html=1;glass=0;shadow=1;sketch=1;" vertex="1" parent="1">
          <mxGeometry x="-320" y="55" width="80" height="240" as="geometry" />
        </mxCell>
        <mxCell id="VfczCMwQgirAFWGqFJcv-562" value="" style="rounded=0;whiteSpace=wrap;html=1;shadow=1;glass=0;sketch=1;" vertex="1" parent="1">
          <mxGeometry x="-490" y="135" width="40" height="40" as="geometry" />
        </mxCell>
        <mxCell id="VfczCMwQgirAFWGqFJcv-563" value="" style="rounded=0;whiteSpace=wrap;html=1;shadow=1;glass=0;sketch=1;" vertex="1" parent="1">
          <mxGeometry x="-450" y="135" width="40" height="40" as="geometry" />
        </mxCell>
        <mxCell id="VfczCMwQgirAFWGqFJcv-564" value="" style="rounded=0;whiteSpace=wrap;html=1;shadow=1;glass=0;sketch=1;" vertex="1" parent="1">
          <mxGeometry x="-490" y="175" width="40" height="40" as="geometry" />
        </mxCell>
        <mxCell id="VfczCMwQgirAFWGqFJcv-565" style="edgeStyle=orthogonalEdgeStyle;rounded=0;orthogonalLoop=1;jettySize=auto;html=1;entryX=-0.062;entryY=0.583;entryDx=0;entryDy=0;entryPerimeter=0;fontSize=18;" edge="1" parent="1" source="VfczCMwQgirAFWGqFJcv-566" target="VfczCMwQgirAFWGqFJcv-561">
          <mxGeometry relative="1" as="geometry" />
        </mxCell>
        <mxCell id="VfczCMwQgirAFWGqFJcv-566" value="" style="rounded=0;whiteSpace=wrap;html=1;shadow=1;glass=0;sketch=1;" vertex="1" parent="1">
          <mxGeometry x="-450" y="175" width="40" height="40" as="geometry" />
        </mxCell>
        <mxCell id="VfczCMwQgirAFWGqFJcv-567" value="Maximum pooling layer" style="text;html=1;strokeColor=none;fillColor=none;align=center;verticalAlign=middle;whiteSpace=wrap;rounded=0;shadow=1;glass=0;sketch=1;fontSize=18;" vertex="1" parent="1">
          <mxGeometry x="-535" y="375" width="170" height="30" as="geometry" />
        </mxCell>
        <mxCell id="VfczCMwQgirAFWGqFJcv-568" value="Batch normalization" style="text;html=1;strokeColor=none;fillColor=none;align=center;verticalAlign=middle;whiteSpace=wrap;rounded=0;shadow=1;glass=0;sketch=1;fontSize=18;" vertex="1" parent="1">
          <mxGeometry x="-370" y="375" width="170" height="30" as="geometry" />
        </mxCell>
        <mxCell id="VfczCMwQgirAFWGqFJcv-569" value="Convolutional layers" style="text;html=1;strokeColor=none;fillColor=none;align=center;verticalAlign=middle;whiteSpace=wrap;rounded=0;shadow=1;glass=0;sketch=1;fontSize=18;" vertex="1" parent="1">
          <mxGeometry x="-740" y="385" width="170" height="30" as="geometry" />
        </mxCell>
        <mxCell id="VfczCMwQgirAFWGqFJcv-573" style="edgeStyle=orthogonalEdgeStyle;rounded=0;orthogonalLoop=1;jettySize=auto;html=1;" edge="1" parent="1" source="VfczCMwQgirAFWGqFJcv-571" target="VfczCMwQgirAFWGqFJcv-572">
          <mxGeometry relative="1" as="geometry" />
        </mxCell>
        <mxCell id="VfczCMwQgirAFWGqFJcv-602" style="edgeStyle=orthogonalEdgeStyle;rounded=0;orthogonalLoop=1;jettySize=auto;html=1;entryX=0.5;entryY=0;entryDx=0;entryDy=0;" edge="1" parent="1" source="VfczCMwQgirAFWGqFJcv-571" target="VfczCMwQgirAFWGqFJcv-601">
          <mxGeometry relative="1" as="geometry" />
        </mxCell>
        <mxCell id="VfczCMwQgirAFWGqFJcv-571" value="" style="rounded=0;whiteSpace=wrap;html=1;" vertex="1" parent="1">
          <mxGeometry x="-1327" y="630" width="40" height="40" as="geometry" />
        </mxCell>
        <mxCell id="VfczCMwQgirAFWGqFJcv-575" style="edgeStyle=orthogonalEdgeStyle;rounded=0;orthogonalLoop=1;jettySize=auto;html=1;entryX=0;entryY=0.5;entryDx=0;entryDy=0;" edge="1" parent="1" source="VfczCMwQgirAFWGqFJcv-572" target="VfczCMwQgirAFWGqFJcv-574">
          <mxGeometry relative="1" as="geometry" />
        </mxCell>
        <mxCell id="VfczCMwQgirAFWGqFJcv-572" value="" style="rounded=0;whiteSpace=wrap;html=1;" vertex="1" parent="1">
          <mxGeometry x="-1247" y="630" width="40" height="40" as="geometry" />
        </mxCell>
        <mxCell id="VfczCMwQgirAFWGqFJcv-577" style="edgeStyle=orthogonalEdgeStyle;rounded=0;orthogonalLoop=1;jettySize=auto;html=1;entryX=0;entryY=0.5;entryDx=0;entryDy=0;" edge="1" parent="1" source="VfczCMwQgirAFWGqFJcv-574" target="VfczCMwQgirAFWGqFJcv-576">
          <mxGeometry relative="1" as="geometry" />
        </mxCell>
        <mxCell id="VfczCMwQgirAFWGqFJcv-574" value="" style="rounded=0;whiteSpace=wrap;html=1;" vertex="1" parent="1">
          <mxGeometry x="-1167" y="630" width="40" height="40" as="geometry" />
        </mxCell>
        <mxCell id="VfczCMwQgirAFWGqFJcv-576" value="" style="rounded=0;whiteSpace=wrap;html=1;" vertex="1" parent="1">
          <mxGeometry x="-1087" y="630" width="40" height="40" as="geometry" />
        </mxCell>
        <mxCell id="VfczCMwQgirAFWGqFJcv-603" style="edgeStyle=orthogonalEdgeStyle;rounded=0;orthogonalLoop=1;jettySize=auto;html=1;entryX=1;entryY=0.5;entryDx=0;entryDy=0;" edge="1" parent="1" source="VfczCMwQgirAFWGqFJcv-578" target="VfczCMwQgirAFWGqFJcv-601">
          <mxGeometry relative="1" as="geometry" />
        </mxCell>
        <mxCell id="VfczCMwQgirAFWGqFJcv-578" value="" style="rounded=0;whiteSpace=wrap;html=1;" vertex="1" parent="1">
          <mxGeometry x="-1287" y="710" width="40" height="40" as="geometry" />
        </mxCell>
        <mxCell id="VfczCMwQgirAFWGqFJcv-584" style="edgeStyle=orthogonalEdgeStyle;rounded=0;orthogonalLoop=1;jettySize=auto;html=1;entryX=1;entryY=0.5;entryDx=0;entryDy=0;" edge="1" parent="1" source="VfczCMwQgirAFWGqFJcv-579" target="VfczCMwQgirAFWGqFJcv-578">
          <mxGeometry relative="1" as="geometry" />
        </mxCell>
        <mxCell id="VfczCMwQgirAFWGqFJcv-579" value="" style="rounded=0;whiteSpace=wrap;html=1;" vertex="1" parent="1">
          <mxGeometry x="-1207" y="710" width="40" height="40" as="geometry" />
        </mxCell>
        <mxCell id="VfczCMwQgirAFWGqFJcv-583" style="edgeStyle=orthogonalEdgeStyle;rounded=0;orthogonalLoop=1;jettySize=auto;html=1;entryX=1;entryY=0.5;entryDx=0;entryDy=0;" edge="1" parent="1" source="VfczCMwQgirAFWGqFJcv-580" target="VfczCMwQgirAFWGqFJcv-579">
          <mxGeometry relative="1" as="geometry" />
        </mxCell>
        <mxCell id="VfczCMwQgirAFWGqFJcv-580" value="" style="rounded=0;whiteSpace=wrap;html=1;" vertex="1" parent="1">
          <mxGeometry x="-1127" y="710" width="40" height="40" as="geometry" />
        </mxCell>
        <mxCell id="VfczCMwQgirAFWGqFJcv-582" style="edgeStyle=orthogonalEdgeStyle;rounded=0;orthogonalLoop=1;jettySize=auto;html=1;entryX=1;entryY=0.5;entryDx=0;entryDy=0;" edge="1" parent="1" source="VfczCMwQgirAFWGqFJcv-581" target="VfczCMwQgirAFWGqFJcv-580">
          <mxGeometry relative="1" as="geometry" />
        </mxCell>
        <mxCell id="VfczCMwQgirAFWGqFJcv-581" value="" style="rounded=0;whiteSpace=wrap;html=1;" vertex="1" parent="1">
          <mxGeometry x="-1047" y="710" width="40" height="40" as="geometry" />
        </mxCell>
        <mxCell id="VfczCMwQgirAFWGqFJcv-590" style="edgeStyle=orthogonalEdgeStyle;rounded=0;orthogonalLoop=1;jettySize=auto;html=1;entryX=0.5;entryY=0;entryDx=0;entryDy=0;" edge="1" parent="1" source="VfczCMwQgirAFWGqFJcv-589" target="VfczCMwQgirAFWGqFJcv-571">
          <mxGeometry relative="1" as="geometry" />
        </mxCell>
        <mxCell id="VfczCMwQgirAFWGqFJcv-591" style="edgeStyle=orthogonalEdgeStyle;rounded=0;orthogonalLoop=1;jettySize=auto;html=1;entryX=0.5;entryY=0;entryDx=0;entryDy=0;" edge="1" parent="1" source="VfczCMwQgirAFWGqFJcv-589" target="VfczCMwQgirAFWGqFJcv-578">
          <mxGeometry relative="1" as="geometry">
            <mxPoint x="-1267" y="700" as="targetPoint" />
            <Array as="points">
              <mxPoint x="-1267" y="570" />
            </Array>
          </mxGeometry>
        </mxCell>
        <mxCell id="VfczCMwQgirAFWGqFJcv-589" value="" style="ellipse;whiteSpace=wrap;html=1;" vertex="1" parent="1">
          <mxGeometry x="-1327" y="550" width="40" height="40" as="geometry" />
        </mxCell>
        <mxCell id="VfczCMwQgirAFWGqFJcv-592" style="edgeStyle=orthogonalEdgeStyle;rounded=0;orthogonalLoop=1;jettySize=auto;html=1;entryX=0.5;entryY=0;entryDx=0;entryDy=0;" edge="1" parent="1" source="VfczCMwQgirAFWGqFJcv-594">
          <mxGeometry relative="1" as="geometry">
            <mxPoint x="-1227" y="630" as="targetPoint" />
          </mxGeometry>
        </mxCell>
        <mxCell id="VfczCMwQgirAFWGqFJcv-593" style="edgeStyle=orthogonalEdgeStyle;rounded=0;orthogonalLoop=1;jettySize=auto;html=1;entryX=0.5;entryY=0;entryDx=0;entryDy=0;" edge="1" parent="1" source="VfczCMwQgirAFWGqFJcv-594">
          <mxGeometry relative="1" as="geometry">
            <mxPoint x="-1187" y="710" as="targetPoint" />
            <Array as="points">
              <mxPoint x="-1187" y="570" />
            </Array>
          </mxGeometry>
        </mxCell>
        <mxCell id="VfczCMwQgirAFWGqFJcv-594" value="" style="ellipse;whiteSpace=wrap;html=1;" vertex="1" parent="1">
          <mxGeometry x="-1247" y="550" width="40" height="40" as="geometry" />
        </mxCell>
        <mxCell id="VfczCMwQgirAFWGqFJcv-595" style="edgeStyle=orthogonalEdgeStyle;rounded=0;orthogonalLoop=1;jettySize=auto;html=1;entryX=0.5;entryY=0;entryDx=0;entryDy=0;" edge="1" parent="1" source="VfczCMwQgirAFWGqFJcv-597">
          <mxGeometry relative="1" as="geometry">
            <mxPoint x="-1147" y="630" as="targetPoint" />
          </mxGeometry>
        </mxCell>
        <mxCell id="VfczCMwQgirAFWGqFJcv-596" style="edgeStyle=orthogonalEdgeStyle;rounded=0;orthogonalLoop=1;jettySize=auto;html=1;entryX=0.5;entryY=0;entryDx=0;entryDy=0;" edge="1" parent="1" source="VfczCMwQgirAFWGqFJcv-597">
          <mxGeometry relative="1" as="geometry">
            <mxPoint x="-1107" y="710" as="targetPoint" />
            <Array as="points">
              <mxPoint x="-1107" y="570" />
            </Array>
          </mxGeometry>
        </mxCell>
        <mxCell id="VfczCMwQgirAFWGqFJcv-597" value="" style="ellipse;whiteSpace=wrap;html=1;" vertex="1" parent="1">
          <mxGeometry x="-1167" y="550" width="40" height="40" as="geometry" />
        </mxCell>
        <mxCell id="VfczCMwQgirAFWGqFJcv-598" style="edgeStyle=orthogonalEdgeStyle;rounded=0;orthogonalLoop=1;jettySize=auto;html=1;entryX=0.5;entryY=0;entryDx=0;entryDy=0;" edge="1" parent="1" source="VfczCMwQgirAFWGqFJcv-600">
          <mxGeometry relative="1" as="geometry">
            <mxPoint x="-1067" y="630" as="targetPoint" />
          </mxGeometry>
        </mxCell>
        <mxCell id="VfczCMwQgirAFWGqFJcv-599" style="edgeStyle=orthogonalEdgeStyle;rounded=0;orthogonalLoop=1;jettySize=auto;html=1;entryX=0.5;entryY=0;entryDx=0;entryDy=0;" edge="1" parent="1" source="VfczCMwQgirAFWGqFJcv-600">
          <mxGeometry relative="1" as="geometry">
            <mxPoint x="-1027" y="710" as="targetPoint" />
            <Array as="points">
              <mxPoint x="-1027" y="570" />
            </Array>
          </mxGeometry>
        </mxCell>
        <mxCell id="VfczCMwQgirAFWGqFJcv-600" value="" style="ellipse;whiteSpace=wrap;html=1;" vertex="1" parent="1">
          <mxGeometry x="-1087" y="550" width="40" height="40" as="geometry" />
        </mxCell>
        <mxCell id="VfczCMwQgirAFWGqFJcv-601" value="" style="ellipse;whiteSpace=wrap;html=1;" vertex="1" parent="1">
          <mxGeometry x="-1327" y="790" width="40" height="40" as="geometry" />
        </mxCell>
        <mxCell id="VfczCMwQgirAFWGqFJcv-605" style="edgeStyle=orthogonalEdgeStyle;rounded=0;orthogonalLoop=1;jettySize=auto;html=1;entryX=0.5;entryY=0;entryDx=0;entryDy=0;" edge="1" parent="1" target="VfczCMwQgirAFWGqFJcv-607">
          <mxGeometry relative="1" as="geometry">
            <mxPoint x="-1227" y="670" as="sourcePoint" />
          </mxGeometry>
        </mxCell>
        <mxCell id="VfczCMwQgirAFWGqFJcv-606" style="edgeStyle=orthogonalEdgeStyle;rounded=0;orthogonalLoop=1;jettySize=auto;html=1;entryX=1;entryY=0.5;entryDx=0;entryDy=0;" edge="1" parent="1" target="VfczCMwQgirAFWGqFJcv-607">
          <mxGeometry relative="1" as="geometry">
            <mxPoint x="-1186.9714285714285" y="750" as="sourcePoint" />
            <Array as="points">
              <mxPoint x="-1187" y="810" />
            </Array>
          </mxGeometry>
        </mxCell>
        <mxCell id="VfczCMwQgirAFWGqFJcv-607" value="" style="ellipse;whiteSpace=wrap;html=1;" vertex="1" parent="1">
          <mxGeometry x="-1247" y="790" width="40" height="40" as="geometry" />
        </mxCell>
        <mxCell id="VfczCMwQgirAFWGqFJcv-608" style="edgeStyle=orthogonalEdgeStyle;rounded=0;orthogonalLoop=1;jettySize=auto;html=1;entryX=0.5;entryY=0;entryDx=0;entryDy=0;" edge="1" parent="1" target="VfczCMwQgirAFWGqFJcv-610">
          <mxGeometry relative="1" as="geometry">
            <mxPoint x="-1147" y="670" as="sourcePoint" />
          </mxGeometry>
        </mxCell>
        <mxCell id="VfczCMwQgirAFWGqFJcv-609" style="edgeStyle=orthogonalEdgeStyle;rounded=0;orthogonalLoop=1;jettySize=auto;html=1;entryX=1;entryY=0.5;entryDx=0;entryDy=0;" edge="1" parent="1" target="VfczCMwQgirAFWGqFJcv-610">
          <mxGeometry relative="1" as="geometry">
            <mxPoint x="-1106.9714285714285" y="750" as="sourcePoint" />
            <Array as="points">
              <mxPoint x="-1107" y="810" />
            </Array>
          </mxGeometry>
        </mxCell>
        <mxCell id="VfczCMwQgirAFWGqFJcv-610" value="" style="ellipse;whiteSpace=wrap;html=1;" vertex="1" parent="1">
          <mxGeometry x="-1167" y="790" width="40" height="40" as="geometry" />
        </mxCell>
        <mxCell id="VfczCMwQgirAFWGqFJcv-611" style="edgeStyle=orthogonalEdgeStyle;rounded=0;orthogonalLoop=1;jettySize=auto;html=1;entryX=0.5;entryY=0;entryDx=0;entryDy=0;" edge="1" parent="1" target="VfczCMwQgirAFWGqFJcv-613">
          <mxGeometry relative="1" as="geometry">
            <mxPoint x="-1067" y="670" as="sourcePoint" />
          </mxGeometry>
        </mxCell>
        <mxCell id="VfczCMwQgirAFWGqFJcv-612" style="edgeStyle=orthogonalEdgeStyle;rounded=0;orthogonalLoop=1;jettySize=auto;html=1;entryX=1;entryY=0.5;entryDx=0;entryDy=0;" edge="1" parent="1" target="VfczCMwQgirAFWGqFJcv-613">
          <mxGeometry relative="1" as="geometry">
            <mxPoint x="-1026.9714285714285" y="750" as="sourcePoint" />
            <Array as="points">
              <mxPoint x="-1027" y="810" />
            </Array>
          </mxGeometry>
        </mxCell>
        <mxCell id="VfczCMwQgirAFWGqFJcv-613" value="" style="ellipse;whiteSpace=wrap;html=1;" vertex="1" parent="1">
          <mxGeometry x="-1087" y="790" width="40" height="40" as="geometry" />
        </mxCell>
        <mxCell id="VfczCMwQgirAFWGqFJcv-617" value="BLSTM" style="text;html=1;strokeColor=none;fillColor=none;align=center;verticalAlign=middle;whiteSpace=wrap;rounded=0;shadow=1;glass=0;sketch=1;fontSize=18;" vertex="1" parent="1">
          <mxGeometry x="-1277" y="900" width="200" height="30" as="geometry" />
        </mxCell>
      </root>
    </mxGraphModel>
  </diagram>
</mxfile>
